<?xml version="1.0" encoding="utf-8"?>
<!-- Generator: Adobe Illustrator 24.1.0, SVG Export Plug-In . SVG Version: 6.00 Build 0)  -->
<svg version="1.1" id="Livello_1" xmlns="http://www.w3.org/2000/svg" xmlns:xlink="http://www.w3.org/1999/xlink" x="0px" y="0px"
	 viewBox="0 0 316.5 431.5" style="enable-background:new 0 0 316.5 431.5;" width="50" height="50" xml:space="preserve">
<style type="text/css">

		.Stile_x0020_grafica{fill:#FEFEFE;stroke:#000000;stroke-width:15;stroke-linecap:round;stroke-linejoin:round;stroke-miterlimit:10;}
	.st0{fill:#FEFEFE;}
</style>
<g>
	<path class="st0" d="M55.3,110.9c-0.1-0.1-0.2-0.3-0.4-0.4C55.1,110.7,55.2,110.8,55.3,110.9z"/>
	<path class="st0" d="M116.7,411.7c0-0.1-0.1-0.2-0.1-0.2C116.6,411.6,116.6,411.7,116.7,411.7z"/>
	<g>
		<path class="st0" d="M119.5,421.2c-2,0-5.9-0.7-8.9-5.1c-0.5,0-0.9,0.1-1.4,0.1c-0.2,0-0.3,0-0.5,0c-0.1,0-0.2,0-0.3,0
			c-5.3-0.2-9.8-2-13.8-3.6c-0.9-0.4-1.9-0.8-2.8-1.1c-1-0.4-1.8-0.6-2.6-0.6c-0.4,0-1.2,0.1-2.3,0.6c-2.1,0.9-4.3,1.4-6.6,1.4
			c-8.2,0-14.6-6.3-14.9-14.7c-0.1-2.1-0.2-4.3-0.2-6.4c-0.3-7.3-0.6-14.9,0-22.6c-3.3-3.1-5.1-6.7-6.6-9.7c0,0-0.6-1.2-0.7-1.4
			c0,0-0.1,0-0.1,0c-3.5,0-7.7-2.2-8.8-6.4c-0.4-0.1-0.9-0.2-1.3-0.3c-1.1-0.2-2.4-0.4-3.9-0.9c-8.1-2.4-12.7-10.5-11-19.1
			c0.3-1.6,0.5-3.3,0.8-5.1c0.7-5.3,1.6-11.7,5.6-17.6c-7.9-3.6-12.1-10.9-12.5-21.5c-0.1-3.8-1.1-7.7-2.8-11.7
			c-3.2-0.7-5.8-3.2-6.8-6.5c-1.3-4.5,0.8-9.1,5.2-11.3c2-1,4.1-1.5,6.1-1.5c2.8,0,7.9,1,11.6,7.6c2.1,3.8,3.8,7.5,5,11.1
			c0.9-3.3,2.4-6.7,5.1-9.9c-0.4-0.3-0.9-0.8-1.7-1.2c-2-1.2-8.1-4.9-5.2-13.2c0.1-1.2-1.4-3.8-2.4-4.4c-3.9-2.1-7.3-6.9-6.4-11.9
			c0.7-3.7,3.5-6.4,7.3-7.1c0-0.2,0-0.4,0.1-0.5c0.1-1.4,0.3-3.1,0.9-4.9c0-0.1,0.1-0.3,0.2-0.5c-1.3-0.8-2.2-1.8-2.9-2.9
			c-2.4,1-4.9,1.5-7.4,1.5c-6.8,0-12.5-3.7-16.2-6.5c-5.5-4.1-7.7-10.5-5.9-17.3c1-3.8,3.9-8.5,12.2-9.4c-0.7-0.7-1.2-1.4-1.6-2.1
			c-1-1.9-1.2-4.1-0.6-6.2c0,0,0,0,0-0.1c-0.6-1.5-1.6-4-0.8-7c0.1-0.3-0.1-1.4-0.3-2.1c-0.3-1.7-0.7-3.9-0.3-6.3
			c0.2-0.9,0-1.8-0.4-3.4c-0.2-0.9-0.4-1.9-0.6-3c-1.3-9.2,2.6-16,10.7-18.9c1.4-0.5,2.9-1.2,4.5-2c1.3-0.6,2.6-1.3,4.1-1.9
			l-0.4-0.8c-1-1.9-1-4.2-0.2-6.2c0.2-0.5,0.5-1,0.8-1.4c-0.3-1.3-0.3-2.7,0.1-4c0.1-0.3,0.2-0.5,0.3-0.8c-0.1-0.5-0.2-1.1-0.2-1.6
			c0-3.1,1.8-5.8,4.7-7c0.6-0.3,1.3-0.5,2-0.6c-0.3-0.6-0.6-1.3-0.9-2c-0.7-2.1-0.4-4.4,0.7-6.3s3.1-3.2,5.3-3.5
			c0.9-0.1,1.7-0.2,2.6-0.2c1.3,0,2.5,0.1,3.6,0.3c0.9-1.9,2.6-3.4,4.6-4c2.4-0.7,4.9-1.1,7.7-1.1c0.6,0,1.2,0,1.8,0
			c0.3-1.3,0.9-2.5,1.8-3.6c1.4-1.6,3.5-2.5,5.6-2.5c0.1,0,0.3,0,0.4,0c0.2,0,0.5,0,0.7,0c1.4-1.4,3.3-2.3,5.4-2.3
			c0.1,0,0.2,0,0.3,0c0-0.1,0-0.2,0.1-0.3c0.5-2.1,1.9-3.9,3.8-4.9c1.5-0.8,3.1-1.2,4.6-1.2c0.1,0,0.2,0,0.3,0l0.4-0.4
			c1.4-1.5,3.4-2.4,5.5-2.4c0.4,0,0.8,0,1.2,0.1c0.9,0.1,1.7,0.4,2.5,0.9c-0.2-1.2-0.4-2.4-0.9-3.5c-0.4-1.1-0.6-2.3-0.4-3.5
			c0,0,0-0.1,0-0.1c-1.2-3.7-0.2-6.3,1-7.9c1.5-2.1,3.8-3.2,6.4-3.2c1.2,0,2.1,0.3,2.7,0.4c2.2,0.4,4.1,1.8,5.2,3.8
			c0.5,1,1,1.9,1.5,2.9c0.1,0.1,0.1,0.3,0.2,0.4c0.5-0.3,1.1-0.6,1.7-0.8c0.2-0.9,0.3-1.7,0.3-2.2c-0.1-1,0-2,0.4-3
			c0.2-1.5,0.7-4.7,3.9-6.9c1.2-0.9,2.7-1.3,4.1-1.4c0.9-1.1,2-1.9,3-2.3c1.1-0.5,2.2-0.8,3.3-0.8c0.7,0,1.3,0.1,1.9,0.3
			c0.5-0.8,1.1-1.6,2-2.3c1.4-1.2,3.1-1.8,4.9-1.8c0.4,0,0.8,0,1.3,0.1c-0.9-0.9-1.9-1.9-3-2.9l-0.1-0.1c-5-4.3-4.3-9.7-1.6-12.8
			c1.7-2,4-3.1,6.4-3.1c2.8,0,4.7,1.3,5.7,2.3c0.3,0.1,0.5,0.3,0.8,0.4c0-3.7,0.6-7.1,1.2-10c1.9-9.2,8.6-9.9,10.6-9.9
			c2,0,4.1,0.6,6.4,1.7c1.9,0.9,7.6,3.7,9.6,10.5c1,3.3,0.6,6.2-1.1,8.5c-1.3,1.8-3.3,2.9-5.5,3.1c0,0.4,0.1,0.9,0.1,1.4
			c1.2-0.2,2.6-0.2,4.2-0.3c0,0,0.1,0,0.2,0c2.7,0,5.1,1.4,6.5,3.7c5.8,9.8,6.2,20.4,1.3,30.5c-0.4,0.9-0.9,1.5-1.2,1.9l-0.1,0.1
			c-0.8,1.3-1.9,2.3-2.9,2.9c0.3,2.9,0.9,5.7,1.7,8.4c0.3,0.1,0.7,0.2,1.1,0.4c3,1.2,5.1,3.2,6.7,4.7c0.5,0.5,1.1,1.1,1.5,1.4l1.3,0
			c3.1,0,5.8,1.9,7,4.7c0.6,1.4,1,2.8,1.5,4.1c0.4,1.2,0.8,2.3,1.2,3.3c0.5-0.1,0.9-0.1,1.4-0.1c1.1,0,2.1,0.2,3.1,0.7
			c2.8,1.3,4.6,4.2,4.4,7.3c-0.1,1.7,0,2.6,0.1,3c0.1,0,0.3,0.1,0.6,0.2c3.5,0.7,6.6,3.6,7.3,7c0.1,0.4,0.4,0.9,0.9,1.4
			c1-0.9,2.2-1.6,3.5-2.2c0.1-0.1,0.2-0.3,0.3-0.4c0.4-0.5,0.8-1,1.2-1.4c-0.3-1.7,0-3.4,0.7-5c1.8-3.7,5.4-4.8,7-5.2l0.2-0.1
			c2.3-0.7,4-2.7,6.6-5.9c1.3-1.6,2.6-3.2,4.2-4.8l0.3-0.3c1.2-1.2,2.7-2.7,5.5-3.9c5.9-2.5,12.3-3.6,20.2-3.6c3.1,0,6.2,0.2,9,0.4
			c0.6-0.6,1.2-1.1,1.7-1.5c0.2-0.2,0.4-0.3,0.6-0.5c4-4,8.1-4.9,10.8-4.9c1.9,0,3.9,0.4,5.7,1.2c5.7,2.6,8.4,8.7,6.5,14.9
			c-0.1,0.4-0.2,0.8-0.3,1.2c-1.5,6.6-4.9,10.3-10.3,11c-3.8,4-8.8,4.6-11.7,5c-0.9,0.1-2.3,0.3-2.7,0.5c-1.4,0.7-3.1,1.2-4.7,1.2
			c-1.5,0-2.9-0.3-4.1-1c-0.7-0.3-1.2-0.5-1.6-0.5c-1.4,0-4.1,2.9-5.2,4.2c-6.8,7.7-12.8,16.2-17.6,25.4c-0.6,1.2-0.9,2-0.9,2.4
			c0.8,7.5-2.1,11.7-5.5,14.1c0.1,2.3-0.3,5.3-3.2,7.6c-0.2,0.2-0.4,0.4-0.7,0.5c0.1,0.3,0.2,0.7,0.3,1c0.9,3.1,0.3,6.3-1.5,8.7
			c-1,1.3-2.3,2.3-3.9,2.9c0,0.1,0,0.2,0.1,0.4c0.3,1.6,1,5.2-1.7,8.4c-1.1,1.3-2.6,2.3-4.3,2.7c0.8,0.7,1.9,1.7,3,2.7
			c0.9,0.8,1.7,1.6,2.3,2.5c0.8-0.2,1.6-0.4,2.6-0.4c1.6,0,3.9,0.4,6.1,2.5c2.9,2.7,3.7,6.3,2.5,10.8c-0.2,0.7-0.3,1.1-0.3,1.4
			c0.4,0.2,1,0.5,2.2,0.9c4.4,1.5,6.9,4.1,7.5,8c0.5,3-0.4,6.4-3.3,8.7c5.4,3.8,4.8,8.6,4.3,10.6c-0.6,2.2-1.8,4-3.5,5.2
			c0.2,1.5,0.1,3.2-0.8,4.9c-0.7,1.5-1.7,2.5-2.7,3.3c0,0.8-0.2,1.6-0.3,2.3c0.5,0.6,1,1.2,1.3,1.9c3.1,4.5,1.7,8.3-0.1,10.5
			c0.1,0.1,0.3,0.4,0.3,0.4c0.4-0.1,0.7-0.1,1.1-0.1c1.7,0,3.3,0.6,4.7,1.6c6.9,5.4,10.5,11.4,10.7,17.8c0.2,6.1-2.6,12-8.4,17.5
			c-0.9,0.8-1.8,1.5-2.7,2.2c1.8,1.1,3.5,2.5,4.9,4.1c2,2.1,8,8.7,4,17.5l-0.4,0.8c-1.9,4.3-5.4,12.3-15.7,12.3
			c-1.5,0-2.9-0.4-4-1.2c-0.5,2.9-0.9,5.4-0.4,7.8c0.2,1.3,0.2,2.6,0,3.8c0.7,0,1.5,0,2.2,0c1.7,0,3.5,0,5.6-0.1
			c0.1,0,0.1-0.1,0.2-0.1c0.1-0.1,0.2-0.1,0.3-0.2c1.9-1.8,3.9-2.2,5.4-2.2c1,0,6.1,0.3,7.8,6.5c0.5,1.9,0.5,3.6,0.2,5.1
			c2.2-0.2,4.3-0.3,6.6-0.3c0.6,0,1.2,0,1.8,0c2.9,0.1,5.5,1.8,6.6,4.5c1.2,2.7,1.1,5.6-0.1,8c-1.3,2.4-3.6,4.2-6.5,4.7
			c-2.7,0.6-5.4,1.3-8.3,2c-7,1.8-14.3,3.6-22.1,3.6c-3.5,0-6.7-0.4-10-1.1c-7.4-1.7-13.2-5.3-18.5-8.9c-2.6-1.8-4.6-2.9-6.5-2.9
			c-0.2,0-0.5,0-0.8,0.1c0,0,0,0,0,0c0.3,3.7,0.6,8.6-2.6,12.1c-2,2.1-4.6,3.2-8,3.2c-1.8,0-3.7-0.3-5.5-0.7
			c-1.2,0.3-2.3,0.5-3.4,0.5c-1.1,0-3.4-0.2-5.8-1.6c-1.2,2.3-2.6,4.2-4.2,5.8c0.4,0.5,0.7,1,1,1.6c1.2,2.4,1.3,5.1,0.3,7.8
			c-1.4,3.8-4.8,6.1-8.8,6.1c-2.4,0-4.5-0.8-6-1.5c-0.3-0.1-0.8-0.3-0.9-0.4c-1.1-0.3-2.1-0.6-3.2-0.9c-2.1-0.6-4.1-1.2-6-1.6
			c0.1,0.3,0.2,0.7,0.3,1c0.5,2.5,0.1,5-1.3,7c-2.2,3.3-5.7,4-7.3,4.3c-0.1,0-0.3,0-0.4,0.1c-2.3,0.6-4.8,0.9-7.6,0.9
			c-2.3,0-4.5-0.2-6.4-0.4c-0.2,0-0.4,0-0.6,0C126.5,419.2,123.1,421.2,119.5,421.2z M97.2,374c-0.6,1.3-0.9,2.7-0.7,3.4
			c0.1,0.2,0.1,0.4,0.2,0.6c0.2-0.2,0.5-0.3,0.8-0.5c0.8-0.5,1.6-1,2.3-1.6C99,375.3,98.1,374.6,97.2,374z M65.8,311.9
			c0.2,1.8,0.4,3.5,0.7,5.4c1.2-1.6,2.5-3.1,3.8-4.4C68.8,312.6,67.3,312.3,65.8,311.9z M181.5,307.1c1,1.1,2,2,2.9,2.6
			c5.5,3.6,10.7,5.3,15.8,5.3c2.8,0,5.7-0.5,8.7-1.6l0.1,0c1.6-0.6,3.9-1.4,6.5-1.4c2.4,0,4.7,0.7,6.5,2c0.4,0.3,0.7,0.4,0.8,0.4
			c0.4-0.2,1.3-1,2.2-2.4c0.4-0.7,0.9-1.3,1.3-1.9c-13.3-4.1-24.1-10.9-33.1-20.5c-3.8-4.1-6-9.3-6.8-15.9c-0.2-1.9-0.4-3-4.8-3.5
			c-5.2-0.6-8.8-3.1-11.7-5.1c-0.1-0.1-0.2-0.1-0.3-0.2c0.3,0.8,0.6,1.6,0.9,2.5c1.2,3.1,2.4,6.2,3.3,9.6c0.6,2.3,2.3,4,5.3,6.6
			c0.9,0.8,1.8,1.6,2.7,2.4c1.6,1.6,3.3,3.3,4.5,5.4c2.6,4.3,2.4,8.9-0.4,12.5C185.2,304.9,183.8,306.3,181.5,307.1z M67.6,278.1
			c1.5,0,2.8,0.2,4.1,0.3c2.2,0.3,4.2,1.2,5.6,2.5c0.5-0.3,1-0.5,1.4-0.7c-2.6-0.8-4.4-2.2-5.5-3.2c-0.2-0.2-0.5-0.4-0.6-0.5
			c-0.4-0.2-0.9-0.5-1.3-0.8c0,0,0,0,0,0c-1.2,1-2.4,1.5-3.5,1.7C67.6,277.6,67.6,277.8,67.6,278.1z M195.7,241.8
			c0.8,0.7,1.9,1.7,2.9,2.4c0.7-0.6,1.4-1.3,2.3-1.9c0.3-0.2,0.6-0.4,1-0.6c-0.5-2.5-0.2-4.7,0-6.1c-0.8-0.6-1.4-1.3-1.9-2
			c-0.4,0.5-0.7,0.9-1.1,1.3c-0.6,0.8-1.2,1.5-1.8,2.3C195.6,239.2,195.4,241.2,195.7,241.8L195.7,241.8z M203.2,228.6L203.2,228.6z
			"/>
		<path d="M165,17.8c0.9,0,1.9,0.3,3.1,0.9c2.7,1.3,4.8,3,5.7,5.9c0.4,1.4,0.3,2.1-0.3,2.1c-0.4,0-1-0.3-1.7-1
			c0-1.6-0.9-2.3-2.2-2.3c-0.1,0-0.3,0-0.4,0c-1.5,0.2-1.2,1.6-1.5,2.7c-2,7.8-0.2,15,3,22.3c2.4-5.6,2.4-5.6,8.2-5.8
			c4.5,7.6,4.9,15.5,1.1,23.5c-0.2,0.4-0.6,0.8-0.8,1.2c-1.1,1.8-4.5,1.1-4.3,4.1c0.3,5.3,1.2,10.5,3,15.5c0.7,2.1,3.2,2.4,4.8,3
			c3.9,1.6,5.7,6.2,10.2,6.6c0.7,0,1.4,0,2.1,0c1.8,4.4,2.6,9.3,6,13c1,2,1.7,2.7,2.3,2.7c1.2,0,1.8-2.8,2.7-3.8
			c-0.4,5.3,0.4,9.8,6.8,11c0.5,0.1,1.3,0.7,1.4,1.3c1.2,5.5,6.4,7.3,9.8,10.7c0,0.3,0.1,0.7,0.1,1h0h0c0.7,2.5-4.6,4.6-1.7,5.8
			c0.3,0.1,0.5,0.2,0.7,0.2c1.9,0,1.5-4.2,2.8-5.9c-0.8-3.9,0.2-6.8,4.5-7.8c0.9-0.2,1.7-0.9,1.6-2.1c1.5-2,4.4-3.2,2.9-6.7
			c-0.7-1.6,1.2-2,2.5-2.4c6.6-2,9.5-8.2,13.9-12.6c1.1-1.1,1.8-1.9,3.4-2.6c5.7-2.4,11.4-3,17.3-3c3.2,0,6.4,0.2,9.6,0.5
			c0.2,0,0.3,0,0.5,0c1.5,0,2.9-0.6,3.9-1.9c0.7-0.9,1.7-1.6,2.5-2.4c1.6-1.6,3.5-2.7,5.5-2.7c0.8,0,1.7,0.2,2.6,0.6
			c2.4,1.1,3.2,3.4,2.4,5.9c-0.9,3-0.8,7-5.3,7c-0.2,0-0.4,0-0.6,0c0,0-0.1,0-0.1,0c-0.6,0-1.4,0.3-1.7,0.7
			c-3.1,5.5-9.3,3.2-13.6,5.5c-0.3,0.2-0.8,0.3-1.2,0.3c-0.3,0-0.5,0-0.7-0.1c-1.8-0.9-3.5-1.4-5.1-1.4c-4.4,0-7.8,3.3-10.8,6.7
			c-7.3,8.2-13.5,17.2-18.7,26.9c-1.1,2.1-2,4.2-1.7,6.6c0.4,3.8-0.2,6.7-4.5,8.3c-3.6,1.3,0.2,5.5-1.6,6.9c-2,1.6-4.7,2.3-4.1,5.6
			c0.2,1.3,0.9,2.5,1.3,3.8c0.3,1.2,0.1,2.6-1.3,2.6c0,0-0.1,0-0.1,0c-0.2,0-0.4,0-0.5,0c-5.4,0-3.8,4.2-3.7,7.2
			c0.1,1.8,1.2,4.1-0.8,4.1c-0.5,0-1.1-0.1-1.9-0.4c-0.1,0-0.3-0.1-0.4-0.1c-0.8,0-0.8,1-1,1.6c-3.1,8.2-3.1,8.2,3.9,14.3
			c1.2,1,1.9,2.2,2.6,3.6c0.7,1.5,1.7,2.4,3,2.4c0.7,0,1.5-0.3,2.3-0.9c0.6-0.5,1.3-1.1,2-1.1c0.3,0,0.7,0.1,1,0.5
			c1,0.9,0.7,2.1,0.3,3.2c-1.7,6.2,0.1,9.3,6.7,11.5c1.1,0.4,2.3,0.8,2.5,2.1c0.2,1.2-0.6,1.7-1.7,2.1c-1.3,0.4-4.2-0.2-3.3,1.5
			c1.4,2.7-1.4,6.2,1.8,8.2c0.8,0.5,1.7,1,2.6,1.5c1,0.6,2,1.4,1.7,2.8c-0.3,1.1-1,1.4-2,1.4c-0.3,0-0.5,0-0.8,0c-0.2,0-0.3,0-0.5,0
			c-2.5,0-3.4,2.2-2.2,3.7c3.8,4.9,0.5,4.8-2.9,4.8c-4.4,0.3-5.6,3.4-5.9,6.9c-0.1,1.5,0.1,2.9-1.8,2.9c-0.1,0-0.2,0-0.3,0
			c-1.3-0.7-2-1.2-2.5-1.2c-0.6,0-0.7,0.8-1,2.7c-0.3,2-1.4,3.5-3.4,3.5c-0.3,0-0.7,0-1.1-0.1c-0.5-0.7-1.1-0.9-1.7-0.9
			c-0.7,0-1.4,0.3-2.1,0.4c0.4,1.5,1.7,2,2.9,2.5c0.1,2.4-0.5,5.1,2.8,5.9c0.3,0.1,0.7,0.1,0.9,0.1c2.4,0,2.9-2.5,3.9-4
			c1.3-2,2.3-4.3,3.4-6.5c1-1.9,2-3.7,3-5.6c0.8-1.4,0.7-3.6,2.8-3.6c0.3,0,0.6,0,0.9,0.1c0,0.3,0.1,0.6,0.1,0.9
			c0.9,2.9-2.5,6.3,1.1,8.9l0.4,0.2c0,0,0.4,0,0.4,0c0.3,0.9,1.6,1.8,0.8,2.6c-3.9,3.2-2.2,6.2,0,9.4c0.2,0.4,0.3,0.9,0.4,1.3
			c0,0,0,0,0,0.1c-4.7,1.1-2.2,7.7-7,9c-1.6,0.5-3.4,2.7-1.4,4.8c1.4,1.4,3.3,3.1,5.1,3.1c0.6,0,1.2-0.2,1.7-0.7
			c1.3-1.3,1.8-3.3,3.1-3.3c0.6,0,1.4,0.4,2.5,1.6c0.1,0.1,0.2,0.1,0.3,0.1c0.5,0,1.1-1,1.3-1.6c0.6-2.2,1.1-4.6-0.6-6.6
			c-2.5-2.9-0.8-4,1.9-4.7c9.8,7.7,10.6,15.8,1.8,23.9c-3.1,2.9-7,4.6-11.2,4.6c-1.1,0-2.3-0.1-3.5-0.4
			c-14.3-3.1-26.9-9.4-37.1-20.3c-3.2-3.4-4.4-7.7-4.9-11.7c-0.9-7.2-5.8-9.4-11.4-10.1c-5.9-0.7-9.3-5.7-14.5-7.2
			c-0.4-0.1-1-0.8-1-1c1.1-5.6-3.5-7-6.7-9.6c-0.6-0.5-1.2-1.3-1.9-1.3c-0.2,0-0.3,0-0.5,0.1c-1.2,0.5-0.7,1.7-0.9,2.6
			c-1.1,6.3,2.5,11.5,4.3,17.1c1.7,5.2,4,10.2,5.4,15.5c1.5,5.8,6.2,8.8,10,12.5c2.3,2.3,5.4,5.4,3.5,7.7c-0.6,0.7-1.6,1-2.9,1
			c-1.9,0-4.3-0.7-6.2-1.6c-3.2-1.6-4.9-4.4-6.5-7.1c-2.2-3.7-5.2-5.1-9-5.1c-0.6,0-1.2,0-1.7,0.1c-3.2,1.4-3.1,2,0.2,5
			c3.6,8.9,12.5,12.4,19.3,18c2.5,2,4.3,4.6,7.2,6.5c6.4,4.2,13,6.5,19.9,6.5c3.6,0,7.3-0.6,11.2-2c1.3-0.5,2.8-1,4.1-1
			c0.8,0,1.5,0.2,2.2,0.6c1.9,1.3,3.6,1.9,5.2,1.9c3.9,0,6.9-3.3,8.6-6c2-3.2,4.1-4.1,6.4-4.1c1.9,0,3.9,0.6,5.9,0.9
			c3.3,0.5,6.4,2.2,8.6,4.7c2.4,2.6,4.4,5.5,2.7,9.4c-1.9,4.2-3.5,8.7-9.3,8.7c0,0,0,0-0.1,0c-0.1-1.6,1.7-1.8,2.1-3.1
			c4.4-6.2,4.2-10.2-0.8-12.1c-0.9-0.3-1.8-0.6-2.6-0.6c-1.3,0-2.3,0.5-2.8,2c-0.5,1.8-0.1,4.1,3.1,4.5c3.4,0.4,2.1,2,0.3,3.3
			c-1.1,0-2.3,0-3.4,0c-2.2-1.4-3.5-2.2-4.3-2.2c-1.1,0-1.3,1.6-1.6,5.3c-0.5,6.1-2.8,12-1.7,18.3c0.3,1.5-0.6,2.6-2.1,3
			c-0.3,0.1-0.5,0.1-0.7,0.1c-1.1,0-1.8-1-2.4-1.9c-1.2-1.7-1.6-3.6-1.9-5.6c-0.6-3.3-1.2-6.5-2.3-9.7c-0.7-2.1-1.4-4.8-3.1-4.8
			c-0.9,0-2,0.7-3.5,2.5c-0.6,0.7-1.4,0.8-2.3,0.8c-0.4,0-0.8,0-1.3,0c-0.9,0-1.8,0.1-2.6,0.6c3.6,4.4,4.5,9.7,5.5,15.1
			c0.7,3.5,2.8,5.6,5.9,6.7c6.7,2.4,13.5,3.1,20.4,3.1c2.7,0,5.4-0.1,8-0.3c0.7,0,1.4-0.9,2-1.3v0c0.1,0.1,0.1,0.1,0.2,0.1
			c0.4,0,0.8-1.2,1.2-1.2c0.2,0,0.4,0.2,0.6,1c0.6,2.1-1,3.5-1.9,5.2c-3.1,1.3-6.4,1.5-9.6,1.5c-1.6,0-3.2-0.1-4.8-0.1
			c-1.1,0-2.2,0-3.3,0.1c-2.7,0.2-5.5,0.4-8.2,1.2c5.6,3.3,11.4,4.2,17.3,4.2c8.2,0,16.4-1.9,24.5-1.9c0.5,0,1,0,1.5,0
			c0.7,1.6-0.4,2.2-1.2,2.4c-9.6,2-19,5.5-28.9,5.5c-2.7,0-5.5-0.3-8.3-0.9c-6.1-1.4-11.1-4.5-16-7.8c-3.4-2.3-6.7-4.1-10.7-4.1
			c-0.6,0-1.1,0-1.7,0.1c-0.1,0-0.2,0-0.4,0c-0.8,0-1.6-0.3-2.4-0.3c-0.1,0-0.2,0-0.2,0c-0.1,0-0.1,0-0.2,0c-1.6,0-3.5-1.4-4.8-1.4
			c-0.4,0-0.7,0.1-1,0.5c-1.8,2.4-2.6,5.7-3.3,8.7c-0.4,1.7,0.1,2.5,1.6,2.5c0.6,0,1.3-0.1,2.2-0.4c0.2-0.1,0.3-0.2,0.4-0.3
			c0.5-0.5,1.1-1.1,1.6-1.6c0.5,5.7,0.1,7.5-3.1,7.5c-1.1,0-2.6-0.2-4.5-0.6c-0.4-0.1-0.8-0.1-1.2-0.1c-0.4,0-0.8,0-1.2,0.2
			c-0.7,0.2-1.4,0.4-2,0.4c-2.1,0-3.2-1.6-3.8-4c-0.6-2.6-2.6-4.5-4.6-4.5c0,0,0,0-0.1,0c-2,0-1.5,2.9-1.9,4.6
			c-1.7,8.7-6.5,14.2-16.4,14.7c1.9,2.5,4.1,2.4,5.7,3.3c2.1,1.2,6.5,1.1,5.2,4.4c-0.4,0.9-1,1.3-1.8,1.3c-1.4,0-3.4-1.1-4.9-1.6
			c-3.4-0.9-6.7-2.1-10.1-2.8c-1.1-0.2-2.3-0.4-3.4-0.4c-2,0-3.9,0.4-5.7,1.7c-3.1,2.2-6.2,3.1-9.4,3.1c-3,0-6.1-0.7-9.1-1.7
			c-3.2-1-6.2-2.3-9.4-3.3c-1.4-0.4-2.8-0.6-4.2-0.6c-2.6,0-5.1,0.7-7.5,1.6c-0.8,0.3-1.5,0.8-1.5,1.8c0.1,1.2,1.1,1.1,1.9,1.2
			c2.3,0.3,4.6,0.6,6.9,0.7c4.3,0.1,8.1,1.1,12.2,3c4.1,1.9,9.1,2.3,13.9,2.3c1.1,0,2.1,0,3.2,0c0.7,0,1.7-0.4,2.5-0.4
			c0.7,0,1.2,0.2,1.4,1c0.5,2.2-2.1,2.2-3.5,2.6c-1.9,0.5-3.8,0.7-5.7,0.7c-1.9,0-3.8-0.2-5.7-0.4c-0.6-0.1-1.2-0.1-1.7-0.1
			c-2.4,0-4.3,0.7-5.8,3.3c-0.8,1.3-1.9,2.3-3.1,2.3c-0.9,0-1.9-0.6-2.8-2c0.4-0.6,0.3-1.8,1.3-1.8c0,0,0.1,0,0.1,0
			c0.4,0,0.7,0.1,1.1,0.1c0.6,0,1-0.2,0.9-1.1c-0.1-0.8-0.6-1-1.2-1c-0.3,0-0.7,0.1-1.1,0.1c-3,0.3-6.1,0.4-9.2,0.7
			c-5.1-0.2-9.6-2.5-14.3-4.3c-1.8-0.7-3.5-1-5.2-1c-1.8,0-3.5,0.4-5.3,1.2c-1.2,0.5-2.5,0.8-3.6,0.8c-4,0-7.2-2.9-7.4-7.5
			c-0.3-9.8-1.1-19.6-0.2-29.4c0.2-1.7-0.2-3.1-1.4-4c-2.9-2.2-4.4-5.3-6-8.4c-1.3-2.7-2.5-5.7-5.9-5.7c-0.4,0-0.9,0-1.4,0.2
			c0,0-0.1,0-0.2,0c-0.6,0-1.5-0.5-1.6-0.8c-1.2-6-6.1-5.1-10.3-6.4c-4.5-1.4-6.7-5.7-5.8-10.5c1.6-7.8,0.9-16.2,7.5-22.6
			c2.5-2.5,0.1-6.5-3.1-7.5c-8-2.5-10.1-8.5-10.3-15.8c-0.2-5.8-1.8-11.1-4.3-16.3c-0.6-1.2-0.9-2.9-2.4-2.9c-0.4,0-0.8,0.1-1.3,0.3
			c-0.1,0-0.2,0.1-0.4,0.1c-0.6,0-1.4-0.6-1.6-1.3c-0.3-1.2,0.4-2,1.3-2.4c1-0.5,1.9-0.7,2.8-0.7c2.2,0,3.8,1.5,5,3.7
			c3.7,6.6,6.3,13.5,6.9,21.2c0.3,4.3,2.1,7.6,6.6,8.9c0.6,0.2,1.2,0.3,1.6,0.3c1.2,0,1.8-0.7,1.9-2.6c0.1-3.5,0.4-7,0.7-10.5
			c0.5-5.4,1-10.7,5.1-15.2c3.7-4,2-8.6-3.8-12.2c-2.1-1.3-2.9-1.8-2-4.5c1.6-4.4-1.9-11.1-6-13.4c-2.4-1.3-3.9-4.8-1-5.1
			c7.1-0.9,5.2-6.7,6.4-10.3c1-2.9,2.4-7.4-2.9-9.3c-1.1-0.4-1.4-3.2-2-4.9c0,0,0,0,0,0c0.7-2,1.7-2.6,2.8-2.6c1,0,2.2,0.6,3.5,1.3
			c0.6,0.3,1.2,0.6,1.7,0.6c0.5,0,1-0.2,1.4-0.6c0.3-0.3,0.4-1.4,0.1-1.8c-1.8-2.3-2.6-6-5.4-6.6c-0.1,0-0.2,0-0.4,0
			c-1.9,0-2.6,3.2-4.1,4.8c-0.4,0.4-0.6,1.1-0.8,1.7c-3.9,4-7.6,5.7-11.1,5.7c-3.9,0-7.7-2-11.8-5c-3.1-2.3-4.1-5.6-3.1-9.3
			c0.7-2.8,3.1-3.6,5.8-3.8c0.5-0.1,1-0.1,1.5-0.1c3.2,0,5.6,1.2,6.8,4.7c0.4,1.2,1,1.8,1.6,1.8c0.5,0,1-0.5,1.1-1.4
			c0.3-2.2,5.9-5.2-0.4-7.1c-1.4-0.4-0.8-1.7-0.4-2.9c1.2-3.6,1-6.6-3.8-7.1c-1-0.1-2.6-0.5-2.1-1.4c1.6-2.9-1.2-5.6-0.8-7.4
			c0.8-3.3-0.9-6.4-0.5-8.7c0.7-3.4-0.5-6-0.9-8.9c-0.7-5,0.6-8.9,5.7-10.7c4.7-1.6,8.8-4.7,13.8-5.6c1.7-0.3,1.7-1.8,2.7-2.6
			c0.2-0.4,0.4-0.8,0.5-1.1c1.1-2.7,0.6-2.8-3.5-3.8c-0.3-0.7-0.7-1.4-1-2.1c2.6-0.9,7.1,0.4,7.2-3.5c0.1-1.4-0.9-1.6-2.1-1.6
			c-0.5,0-1.1,0-1.6,0c-0.9,0-1.7-0.1-2.2-0.6c-1.3-2.2,6.7-2.5,0.2-5c0.8-0.3,1.5-0.4,2.3-0.4c1.9,0,3.7,0.7,5.5,0.7
			c1.3,0,2.5-0.4,3.6-1.6c2.3-1.6,2.5-3.5,1-5.7c-0.9-0.4-1.8-0.9-2.7-1.3c-1.3-1-3.4-1.1-4.2-3.5c0.5-0.1,1.1-0.1,1.6-0.1
			c2.6,0,4.8,0.8,7.1,1.6c1.2,0.4,2.5,0.8,3.6,0.8c1.3,0,2.5-0.5,3.2-2.2c1.5-3.1-2.7-2.5-3.4-4.3c1.8-0.6,3.7-0.7,5.5-0.7
			c1.7,0,3.5,0.2,5.2,0.4c0.4,0.1,0.9,0.1,1.3,0.1c1.8,0,3.4-0.6,4.5-2.1c1.4-1.9-1.4-2.6-1.8-4.4c0.9,0,1.9,0.2,2.8,0.2
			c1.5,0,2.9-0.4,3.7-2.4c0.9,0.3,1.8,0.6,2.8,1c0.9,1.5,1.9,2.1,2.9,2.1c1.4,0,2.8-1.2,4.2-2c0.3,0.7,0.9,1.1,1.4,1.1
			c0.3,0,0.6-0.2,0.9-0.5c0.7-1,0.2-2.1-1.2-2.5c-1.8-1.3-2-3.4-3.2-5.1c0.4-0.2,0.8-0.3,1.1-0.3c1,0,1.5,0.9,2.3,1.1
			c0.7,1.1,1.2,2.3,2.7,2.5c0.1-1.3,0.8-2.6-0.7-3.5c-0.1-0.3-0.1-0.6,0.1-0.9c0.6-0.7,1.2-1.3,1.9-2c0.6,1.4,1.3,2.8,1.9,4.2
			c0.6,2.3,1.8,3.8,4.2,3.8c0.3,0,0.7,0,1-0.1c3.3-0.7,3.8-3.8,4-6.2c0.5-4.8,0.5-9.7-1.3-14.4c0.3-1.2,0-2.2-0.4-3.4
			c-0.3-1-0.1-1.3,0.3-1.3c0.4,0,0.9,0.2,1.3,0.3c1.7,3.2,3.3,6.5,5.2,9.6c1,1.7,2.5,3.1,3.9,4.4c0.7,0.7,1.6,1.3,2.5,1.3
			c0.5,0,1-0.2,1.5-0.5c1.4-1,0.9-2.3,0.5-3.6c-0.4-1.4-0.8-2.8-1.3-5.1c1.2,0.8,2.3,1.3,3,1.3c0.9,0,1.5-0.8,1.6-2.9
			c0.1-2.7,1.2-5.5,1-8.3c0.6-1,0-2.3,1.1-3.1c1.9,4.6,3.9,9.1,5.8,13.7c1.7-4.9-0.7-9.1-0.9-13.6c0,0,0,0,0,0
			c0.6-1-0.2-2.5,1.2-3.2c2.3,4,3.5,8.5,5,12.8c0.5,1.4-0.4,4.2,2.5,4.2c0.1,0,0.2,0,0.3,0c2.2-5,3.4-9.9,0.2-15
			c-0.2-0.3-0.2-0.6-0.1-0.9c0.8-1.6-0.7-3.6,1-5c0.5,1.3-0.4,3,1,4.1c0,1.1,0.4,1.9,1.5,1.9c0,0,0,0,0.1,0c1.1,0,1.6-0.8,1.5-2
			c1-2.6,2.7-4.9,5.2-5.7c3.6-1.2,2.6-2.7,1.4-5.1c-1.8-3.7-4.5-6.5-7.5-9.1c-0.7-0.6-1.8-1.4-0.9-2.4c0.3-0.3,0.5-0.4,0.7-0.4
			c0.6,0,1,0.9,1.6,1.1c3.9,1.7,6.8,4.5,8.7,8.3c-0.4,2.4,1.8,3.7,2.3,5.8c0.1,0.4,1,0.8,1.5,0.8c0,0,0.1,0,0.1,0
			c1.2-0.2,1-1.4,0.7-1.9c-3.1-6-0.5-12.3-1-18.4c0-3,0.4-5.9,1.1-8.9C162.3,19,163.3,17.8,165,17.8 M153.9,66.4
			c0.7-1.9,1.2-3.4,1.8-4.9c0,0,0,0,0,0c0,0,0,0,0,0c0.5-1.3,2.5-1.9,1.7-3.7c-0.1-0.3-0.7-0.8-1-0.8c0,0,0,0-0.1,0
			c-1.8,0.4-2.6,1.8-2.7,3.6C152.1,62.5,151.3,64.3,153.9,66.4 M80,249.4c0.8,0,1.7-0.1,2.5-0.2c-0.2-2.2-2-4-1.6-6.5
			c1.1-6-0.3-11.5-2.5-17.3c-1.6-4.2-4.7-3.8-7.3-4.4c-0.2,0-0.4-0.1-0.5-0.1c-1.9,0-1.8,2.9-2.6,4.4c-0.7,1.5-1.1,3.1-1.5,4.7
			C64.1,241.2,71.3,249.4,80,249.4 M213.1,239.2c3.8-1.2,2.3-5.6,4.7-7.6c1.3-1.7-0.2-2.7-1-3.8c-0.3-0.7-0.7-1.4-1-2.1
			c-0.2-2-1.2-3.3-3.8-4.5c0.9,2.3,1.4,3.4,1.9,4.5c-0.2,0.2-0.3,0.4-0.1,0.7c-2.4,2.4,1.2,4.9,0,7.3
			C212.6,235.3,211.8,237.1,213.1,239.2 M199.2,252.7c2,0,3.9-2.9,5.9-4.2c1.5-1,3.1-1.9,4.7-2.8c0.1,0,0.2,0,0.4,0
			c1.1,0,1.9-0.5,2-1.7c0.1-0.8-0.6-1.3-1.5-1.3c0,0-0.1,0-0.1,0c-2.5-2.3-1.4-5.2-1.2-7.9c0.1-1.5,0.8-4-0.5-4.1
			c-3.7-0.4-3.8-3.8-5.6-5.7c-1.3-1.4-2.5-2.4-3.7-2.4c-1,0-2,0.7-3.1,2.6c-1.5,2.7-3.7,5.1-5.6,7.7c-3.6,5-4,11.4-0.5,14.5
			c2.5,2.2,5.2,4.6,8.2,5.3C198.9,252.7,199.1,252.7,199.2,252.7 M150.5,283.4c0.1,0,0.3,0,0.5,0c1.7-0.2,3.1-1.2,3.8-2.9
			c0.9-2.3,0.1-4.3-1.3-6c-0.9-1.1-2.2-1.8-4.1-3.2c4-0.3,4.8-1.4,1.9-3.6c-1.1-0.8-3.1-1.7-2.4-3.4c1.5-3.5-1.2-4.3-3.1-5.7
			c0.6-1.3,0.4-2.7,0-4c0.7-2.5,0.6-4.8-0.9-7c-1.6-3.5-0.5-7.5-1.7-11.1c-0.3-1,0.1-2.6-1.4-2.6c0,0,0,0-0.1,0
			c-1.3,0-1.6,1.5-2,2.6c-1.8,4.8,1.6,8.5,2.9,12.6c0,1.7,0.1,3.3,1,4.7c0.3,3.6,0.7,7.3,1,10.9c-1.3,5.3,1.8,10,2.3,15.1
			C147.1,281.1,148.2,283.4,150.5,283.4 M65.8,270.1c-0.3,0-0.5-0.1-0.8-0.4c-0.7-0.7-1.2-1-1.6-1c-0.9,0-1.2,1.5-1.6,2.4
			c-2,4.5-1.7,9.5-2.4,14.2c-0.2,1.7,0.3,2.2,1.1,2.2c0.6,0,1.4-0.4,2.1-0.8c1.6-0.9,3.2-1.2,4.9-1.2c1.1,0,2.2,0.1,3.4,0.3
			c0.9,0.1,2.1,0.6,1.9,1.9c-0.1,1.1-1.1,1-1.9,1.2c-1.9,0.4-4,0.2-5.9,2.1c2.7,1.3,4.9,2,6.9,2c3.1,0,5.7-1.6,8.8-5.1
			c0.3-0.3,0.8-0.8,1.1-0.8c0,0,0,0,0.1,0c0.5,0.1,1,0.1,1.5,0.1c2.7,0,4.4-1.4,4.7-4.6c0.4-4.8-1.3-8.6-6.4-9.5
			c-2.3-0.4-3.5-2.1-5.2-3.1c-1.7-1-3.6-2.5-5.7-2.5c-1.2,0-2.3,0.5-3.5,1.8C66.7,269.7,66.3,270.1,65.8,270.1 M158.2,283.4
			c0.4,0,0.8-0.3,1.4-0.6c-0.4-0.4-0.6-0.9-1-1c-0.1,0-0.1,0-0.2,0c-0.4,0-0.9,0.1-1,0.4C157,282.9,157.5,283.4,158.2,283.4
			C158.2,283.4,158.2,283.4,158.2,283.4 M143.8,288.2c0.2,0,0.4-0.1,0.5-0.3c0.8-0.9,0.2-1.7-0.5-2.4c0,0,0,0,0,0
			c-0.5-0.7-1.1-1.7-1.8-1.7c-0.2,0-0.4,0.1-0.7,0.4c-1.1,1.3,0.3,2.5,1.4,3.4C143.1,287.9,143.5,288.2,143.8,288.2 M88.8,310.6
			c-0.9-0.1-1.7-0.3-2.1-1.2c0.7-2.8,0.6-4.9-1.9-4.9c-0.6,0-1.2,0.1-2,0.3c-2.4,0.7-4.7,1-7.1,1c-4,0-7.9-0.9-11.8-2.4h0
			c-1.6-1-2.8-2.8-4.9-3c-2.4,9.6,0.6,18.8,1.6,28.1c0.1,0.9,0.8,1.8,1.5,2.5c3.1,2.8,5,6.5,7.4,9.8c0,0.3,0,0.6,0.2,0.8
			c0.1,1.5,0.9,2.5,2.4,2.5c0,0,0,0,0,0c0.7,0,0.9-0.8,0.6-1.5c0.1-0.3,0.1-0.6-0.1-1c0.1-1.8,0.6-3.6-0.8-5.2
			c-0.2-1-0.2-2.2-1.1-2.9c-1.3-3.7-1.7-7.1,0.9-10.7c1.8-2.6,3.9-4.8,6.1-7c0.3,0,0.6-0.1,0.9-0.2c0.6-0.1,1.1-0.2,1.6-0.2
			c4,0,6.5,3.4,9.5,5.7c1.2,1,2.6,3,3.9,3c0.3,0,0.6-0.1,0.8-0.3c2.1-1.6,4.7-3.5,4.3-7.2c-0.4-3.6,0.1-7.3-0.2-10.9
			c-0.3-4.3-0.7-6.2-2.3-6.2c-1.1,0-2.7,0.9-5.1,2.4c-1.6,1.1-2.3,2.1-1.8,4C90,307.5,90.2,309.2,88.8,310.6 M47.9,338.9
			c0.6,0,1.3-0.2,1.9-0.2c0,0,0,0,0,0c3.2-0.5,3.4-0.7,2-2.9v0c-0.6-0.7-1.2-1.4-1.9-2.1c-0.9-2.2-1.7-4.5-1-7
			c1.7-2.6,0.7-5.5,1.1-8.2c0.1-0.9,0.3-2.3-1-2.4c-0.1,0-0.2,0-0.2,0c-1.4,0-2.1,1.1-1.9,2.6c0,0.7,0,1.3,0,2
			c-0.3,0.2-0.3,0.5-0.1,0.8c-0.9,5.2-2.4,10.4-0.1,15.7c0,0,0,0,0,0C46.6,338.5,47.2,338.9,47.9,338.9 M226.4,331
			c0.5,0,0.8-0.5,1.1-1.1c-0.2-0.3-0.3-0.8-0.6-0.9c-0.1,0-0.3-0.1-0.4-0.1c-0.5,0-0.9,0.4-1.1,0.9c-0.1,0.3,0.3,0.9,0.6,1.1
			C226.2,331,226.3,331,226.4,331 M208.1,347.1c0.2,0,0.4-0.1,0.6-0.2c1.2-1,0.4-1.9-0.7-2.5c-1.2-1.7-2.2-3.6-3.5-5.2
			c-0.5-0.7-1.2-1.8-2-1.8c-0.3,0-0.6,0.1-1,0.5c-1.1,1-1.1,2.8,0.2,4c1.6,1.4,3.3,2.6,5,3.9C206.9,346.4,207.5,347.1,208.1,347.1
			 M157.5,341.6c0.5,0,1.1-0.2,1.2-1c-0.1-0.9-0.8-1.5-1.5-1.7c-0.1,0-0.2,0-0.3,0c-0.5,0-1,0.4-1,1.1c0,1,0.6,1.5,1.5,1.6
			C157.4,341.6,157.4,341.6,157.5,341.6 M122.4,348.6c0.5,0,0.9,0,1.4-0.1c0,0,0,0,0,0c1.1,0.1,2.2,0.2,3.3,0.2c0.2,0,0.4,0,0.6,0
			c1.2-0.1,3,0.3,2.8-1.8c-0.1-1.1-1-1.2-1.8-1.2c-0.3,0-0.5,0-0.8,0c-0.1,0-0.1,0-0.2,0c-2.3-0.1-4.6-0.1-6.9-0.1
			c-0.6-0.1-1.2-0.2-1.8-0.2c-0.8,0-1.6,0.2-2.5,1.1C118.5,347.9,120.4,348.6,122.4,348.6 M184.4,365.7
			C184.4,365.7,184.4,365.7,184.4,365.7c1.4-0.2,2.2-1.3,2.1-2.5c-0.4-3.1-3.8-2.6-5.3-4.2c-0.2,0-0.3,0-0.4,0
			c-0.7,0-1.1,0.2-1.2,0.9C179.4,361,183.3,365.7,184.4,365.7 M94.4,387c1.6,0,3.8-1.2,7.1-3.2c4.7-2.9,8.9-6.8,13.8-10
			c-3.1-0.8-6.3-0.8-9-2.6c-2.6-1.8-5.2-3.5-7.5-5.7c-0.6-0.6-1.3-1-2.1-1c-0.4,0-0.9,0.1-1.5,0.5c-4.2,2.6-7.3,9.7-5.9,14.6
			C90.9,384.8,92.2,387,94.4,387 M145.5,385.8c0.4,0,0.8,0,1.2,0c1.5-0.3,4.7-0.5,6.4-2.9c1.5-2.2-1.5-3.6-2.1-5.6
			c-0.7-2.4-2-4.6-3-6.8c-0.3-0.8-0.6-1.7-1.4-1.7c-0.2,0-0.3,0-0.5,0.1c-4.7,1.7-9.7,2-14.6,3c-1.7,0.3-2.5,1.6-0.6,2.6
			c3.4,1.9,4.9,5.3,7.4,8C140,384.3,141.9,385.8,145.5,385.8 M133,393.7c0.9,0,1.7,0,2.6-0.1c-6.7-5-11.6-7.4-15.3-7.4
			c-2.4,0-4.3,1-5.8,3C120.7,391,126.5,393.7,133,393.7 M133.7,60.8C133.7,60.8,133.7,60.8,133.7,60.8L133.7,60.8 M108.7,72
			C108.7,72,108.7,72,108.7,72L108.7,72 M108.7,72L108.7,72 M165,2.8C165,2.8,165,2.8,165,2.8c-6.8,0-15.5,4.2-17.9,15.9
			c-0.1,0.4-0.2,0.9-0.3,1.3c0,0,0,0,0,0c-4.6,0-9,2.1-12.1,5.7c-4.1,4.8-5.1,11.5-2.5,17.2c-1.3,0.2-2.6,0.7-3.8,1.3
			c-0.8,0.4-2,1.1-3.2,2c-1.8,0.4-3.5,1.2-5,2.3c-1.6,1.1-3.4,2.8-4.8,5.3c-0.8-0.3-1.5-0.5-2.3-0.7c-1.2-0.3-2.6-0.6-4.4-0.6
			c-5,0-9.6,2.4-12.5,6.3c-1.5,2.1-3.7,6.3-2.7,12c-1.3,0.5-2.5,1.2-3.7,2c-1.8,0.3-3.6,0.9-5.3,1.8c-2.3,1.2-4.2,3-5.6,5.1
			c-1,0.4-2.1,0.8-3,1.4c-3.7,0.4-7.2,2.1-9.7,4.9c-0.3,0.4-0.6,0.7-0.9,1.1c-2.4,0.2-4.7,0.6-6.9,1.3c-2.2,0.7-4.2,1.8-5.9,3.4
			c-0.1,0-0.2,0-0.2,0c-1.2,0-2.4,0.1-3.6,0.3c-4.4,0.6-8.3,3.2-10.7,7c-1.6,2.5-2.3,5.4-2.2,8.3c-3.4,2.8-5.4,7-5.4,11.6
			c0,0.3,0,0.7,0,1c-0.3,1.3-0.4,2.6-0.4,3.9c-0.8,1.8-1.2,3.8-1.2,5.7c-0.9,0.4-1.7,0.8-2.4,1.1c-11.5,4-17.5,14.3-15.7,27
			c0.2,1.4,0.5,2.6,0.7,3.6c0.1,0.3,0.2,0.7,0.2,1c-0.6,3.6,0,6.6,0.4,8.5c0,0.1,0,0.2,0.1,0.4c-0.5,3.2,0.1,6,0.7,7.9
			c-0.1,1-0.1,2-0.1,2.9c-6.4,3.5-8.7,9.3-9.5,12.2c-2.5,9.7,0.8,19.3,8.7,25.2c4,3,10.1,6.9,17.6,7.8c-1.1,1.7-1.9,3.7-2.3,5.8
			c-1.1,5.8,1,11.9,5.4,16.3c-1.3-0.3-2.7-0.4-4.2-0.4c-3.2,0-6.3,0.8-9.4,2.2c-7.8,3.8-11.5,12.1-9.1,20.1c1.3,4.4,4.3,8,8.1,10.1
			c0.7,2.2,1.1,4.2,1.2,6.3c0.4,11.8,4.7,19.2,10.1,23.8c-2,5-2.6,9.9-3.2,14c-0.2,1.7-0.4,3.2-0.7,4.6
			c-2.5,12.5,4.3,24.2,16.2,27.8c0.8,0.2,1.5,0.4,2.2,0.6c2.2,3.3,5.5,5.5,9.1,6.5c1.1,2.2,2.6,4.7,4.6,7.1
			c-0.3,6.9-0.1,13.6,0.2,20.1c0.1,2.2,0.2,4.2,0.2,6.3c0.2,6,2.6,11.6,6.7,15.7c4.2,4.1,9.7,6.3,15.6,6.3c3.1,0,6.1-0.6,9-1.8
			c0.8,0.3,1.6,0.6,2.4,1c4.1,1.7,9.2,3.7,15.4,4.1c3.4,3.3,7.7,5.1,12.3,5.1c4.6,0,9.1-1.9,12.5-5.2c1.2,0.1,2.5,0.1,3.8,0.1
			c3.4,0,6.4-0.4,9.3-1.1l0.1,0c2-0.4,8.2-1.6,12.1-7.5c0.5-0.8,1-1.6,1.4-2.5c0.1,0,0.2,0,0.2,0.1c0.1,0.1,0.3,0.1,0.4,0.2
			c1.8,0.8,4.9,2,8.8,2c7.1,0,13.3-4.3,15.8-11c1.1-2.9,1.4-5.9,1-8.8c0.2,0,0.5,0,0.7,0c1.2,0,2.3-0.1,3.5-0.3
			c1.8,0.3,3.6,0.5,5.4,0.5c6.9,0,11.1-3.1,13.5-5.6c1.7-1.9,2.9-3.9,3.6-6c4.9,3.1,10.7,6.2,17.7,7.8c3.7,0.8,7.6,1.3,11.6,1.3
			c8.8,0,16.9-2.1,24-3.9c2.8-0.7,5.4-1.4,7.9-1.9c5.1-1.1,9.3-4.2,11.6-8.6c2.3-4.4,2.4-9.7,0.3-14.4c-2.3-5.3-7.5-8.8-13.3-9
			c-0.6,0-1.2,0-1.7,0c-1.7-5.2-5-8.3-8.6-9.9c4-3.8,6-8.4,7.1-10.9c0.1-0.3,0.2-0.5,0.3-0.8c2.7-5.9,4-15-4.6-24.9
			c6.4-7.5,7.7-14.7,7.5-19.8c-0.3-8.7-4.9-16.5-13.5-23.4c-0.4-0.3-0.9-0.6-1.3-0.9c0.1-2.6-0.5-5.3-1.9-8c0.4-0.6,0.8-1.3,1.1-2
			c0.7-1.4,1.2-3,1.5-4.9c1.5-1.8,2.6-4,3.3-6.5c1-3.8,0.8-8.7-1.9-13.1c1.2-2.8,1.6-6,1.1-9.4c-0.5-3.2-2.4-8.7-8.7-12.2
			c0.3-6.7-3.1-11-5.5-13.2c-1.9-1.8-4.2-3.1-6.6-3.8c0.8-2,1.1-3.9,1.2-5.6c0.7-0.7,1.4-1.4,2-2.2c2.6-3.4,3.7-7.5,3.3-11.8
			c1.3-1.7,2.5-4,3-6.9c3.4-3.5,6.3-8.8,5.9-16.8c4.6-8.6,10.1-16.6,16.5-23.8c0.3-0.3,0.5-0.6,0.8-0.8c1.5,0.4,3,0.6,4.6,0.6
			c2.5,0,5-0.5,7.3-1.6c0.3,0,0.7-0.1,1.1-0.1c3.1-0.4,9.2-1.1,14.5-5.5c4.2-1.2,7.8-3.7,10.3-7.3c2.4-3.4,3.1-6.8,3.6-8.9
			c0.1-0.3,0.1-0.6,0.2-0.7c3-9.9-1.4-19.7-10.7-23.9c-2.8-1.3-5.8-1.9-8.8-1.9c-4,0-10,1.2-15.7,6.7c-2-0.1-4.1-0.2-6.3-0.2
			c-8.8,0-16.2,1.3-23,4.2c-4.2,1.7-6.5,4.1-7.9,5.5l-0.3,0.3c-1.9,1.9-3.4,3.8-4.8,5.5c-0.9,1.2-2.3,2.9-3,3.4
			c-2,0.6-7.8,2.3-11.1,8.2c-0.3-0.2-0.6-0.4-0.9-0.6c-0.6-5.2-3.8-9.7-8.7-11.9c-0.7-0.3-1.4-0.6-2.2-0.8c-0.3-1-0.7-2-1.1-3.1
			c-2.1-5.1-6.8-8.7-12.2-9.3c-1.4-1.3-3.3-3-6-4.5c0-0.1,0-0.1,0-0.2c0.4-0.5,0.7-0.9,1.1-1.5c0.4-0.5,1.1-1.6,1.8-2.9
			c6-12.5,5.5-25.5-1.6-37.6c-0.9-1.6-2.2-3-3.6-4.1c0.9-2.7,1.3-6.3,0-10.6c-1.9-6.6-6.4-11.7-13.4-15.1
			C171.4,3.6,168.2,2.8,165,2.8L165,2.8L165,2.8z M108.7,87L108.7,87L108.7,87L108.7,87z M246.5,206.2
			C246.5,206.2,246.5,206.2,246.5,206.2L246.5,206.2L246.5,206.2z M193.6,306.1c0.7-1.3,1.3-2.7,1.6-4.2c2.3,1.9,4.8,3.8,7.4,5.4
			c-0.8,0.1-1.6,0.2-2.3,0.2C198.1,307.5,195.9,307,193.6,306.1L193.6,306.1z"/>
	</g>
</g>
</svg>
