<?xml version="1.0" encoding="utf-8"?>
<!-- Generator: Adobe Illustrator 24.1.0, SVG Export Plug-In . SVG Version: 6.00 Build 0)  -->
<svg version="1.1" id="Livello_1" xmlns="http://www.w3.org/2000/svg" xmlns:xlink="http://www.w3.org/1999/xlink" x="0px" y="0px"
	 viewBox="0 0 425.4 300.4" style="enable-background:new 0 0 425.4 300.4;" width="50" height="50" xml:space="preserve">
<style type="text/css">

		.Stile_x0020_grafica{fill:#FEFEFE;stroke:#000000;stroke-width:15;stroke-linecap:round;stroke-linejoin:round;stroke-miterlimit:10;}
	.st0{fill:#FEFEFE;}
</style>
<g>
	<g>
		<path class="st0" d="M243.5,289.6c-3.3,0-6-1.5-7.6-4.1c-4.7,1.9-9.8,3.3-15.5,3.4c-0.3,0-0.5,0-0.8,0c-0.6,0-1.1,0.1-1.7,0.1
			c-1.3,0-2.4-0.1-3.4-0.4c-7.4-1.8-11.6-7.7-10.1-14c0.1-0.4,0.2-0.7,0.3-1.1c-0.1,0-0.3-0.1-0.4-0.1c-1.4-0.4-3-0.9-4.7-1.8
			c-1.2-0.6-1.7-0.7-1.8-0.7c0,0-0.2,0.1-0.5,0.4c-1.2,1.1-2.7,1.8-4.2,2c-0.8,0.7-1.8,1.3-2.8,1.6c-0.6,0.9-1.5,1.7-2.4,2.2l-2,1.1
			c-1.2,0.7-2.4,1-3.7,1c-0.7,0-1.4-0.1-2.1-0.3c-2-0.6-3.6-1.9-4.6-3.8l-1-1.9c-1-1.9-1.1-4.1-0.4-6.1c-0.8-0.2-1.6-0.3-2.4-0.5
			c-4.2-0.9-8.1-1.7-12-1.7c-2.6,0-5-1.4-6.4-3.6c-0.4-0.7-0.7-1.5-0.9-2.3c-1.4-0.3-2.9-0.6-4.3-1.1c-2.7-0.9-4.8-1.3-6.7-1.3
			c-1.8,0-3.4,0.4-5.1,1.2c-1.3,0.6-2.8,1-4.3,1c-1.5,0-2.9-0.3-3.9-0.5c-0.2-0.1-0.5-0.1-0.7-0.1c-1-0.2-1.9-0.3-2.8-0.3
			c-2,0-3.4,0.5-4.8,1.6c-0.9,0.7-1.9,1.2-2.9,1.5c-0.9,0.5-2.3,1-3.9,1c-3.6,0-7.6-2.5-8.1-8c-1,0.3-2.1,0.7-3.2,1.1
			c-1.8,0.6-3.7,1.3-5.7,1.8c-0.1,0-0.2,0.1-0.3,0.1c-1,0.4-2.7,1-5,1c-1.3,0-2.7-0.2-4-0.7c-2-0.7-3.7-2.3-4.5-4.3
			c-0.8-2-0.7-4.3,0.3-6.2c2.8-5.6,7.4-8.6,11.4-10.6c0-0.3-0.1-0.5-0.1-0.8c-1.7,0.2-3.4,0.3-5.1,0.3c-2.6,0-5.2-0.3-7.8-0.8
			c-1.5-0.3-2.9-1.1-3.9-2.1c-1.9-0.2-3.6-1.1-4.9-2.6c-1.3-1.6-1.9-3.7-1.7-5.7c-4,1.6-8.2,2.4-12.4,2.4c-1.1,0-2.1-0.1-3.2-0.2
			c-1.4-0.1-2.7-0.5-3.8-1c-0.5,0.4-1.1,0.7-1.6,1.1c-1.6,1-3.4,1.5-5.2,1.5c-3.3,0-6.2-1.7-7.9-4.5c-2.2-3.7-1.3-8.4,2-11.5
			c-2.6,0.4-5.1,0.6-7.6,0.9c-0.4,0-0.8,0.1-1.2,0.1c-4.2,0-6.8-2.3-7.8-3.2c0,0-0.1-0.1-0.1-0.1c-1.1-0.6-2.3-1.1-3.5-1.6
			c-0.7-0.3-1.3-0.6-2-0.9c-0.6-0.3-1.1-0.6-1.6-1c-4.6-2.3-5.7-6.8-4.7-10.5c0.8-3.1,3.5-5.3,6.7-5.5c0.9-1.9,2.5-3.3,4.5-4
			c2.3-0.7,4.6-1.1,6.7-1.4c2.2-0.3,4-0.6,5.5-1.3c1-0.4,2-0.7,3.1-0.7c0.4,0,0.8,0,1.2,0.1c-6.2-15.9-5.9-32.2,0.9-48.5
			c1.1-2.5,1.9-4.6,1.8-6.5c-0.1-4.9,1.4-11.8,9.2-17.2c2.3-1.6,3.8-3.2,4.6-5.2c1.8-4.5,5.1-7.5,7.7-9.8c0.9-0.9,1.8-1.7,2.5-2.4
			c2.7-3,4.8-6.7,7.1-10.6c2.4-4.1,4.8-8.3,8.2-12.3c-0.5-1.3-0.6-2.6-0.5-4c0.3-2.2,1.3-4.2,3-5.7c0.5-2.9,1.5-4.6,3.4-6.7
			c-0.2-1.7,0.1-3.3,0.9-4.8c1-1.9,2.8-3.3,4.8-4c0.6-0.7,1.3-1.3,2.2-2c0.1-0.2,0.2-0.3,0.3-0.5c0.9-1.7,2.8-5,6.5-6.5
			c0.2-0.3,0.4-0.7,0.7-1c1.1-1.5,2.7-2.5,4.5-3c0.1-0.2,0.2-0.3,0.3-0.5c0.8-1.1,2.6-2.8,5.6-3.3c1.7-2.1,4.1-3.1,6.4-3.1
			c1,0,2.7,0.2,4.5,1.3c1.3-0.9,2.6-2.1,4-3.5c1.4-1.3,2.8-2.7,4.4-3.9c4-3.1,8.2-4.9,11.9-6.4c0.8-0.3,1.6-0.7,2.3-1
			c4.1-1.8,8.6-2.6,13.9-2.6c1.4,0,2.9,0.1,4.5,0.2c3.9,0.3,7,3.6,6.9,7.6c0,3-1.3,7-6.9,9.4c-0.1,0-0.2,0.1-0.3,0.1
			c-8.4,4-16.5,9.5-24.2,16.4c-16.9,15.2-25.2,29.4-26.8,46l-0.1,0.6c-0.1,0.9-0.2,1.8-0.2,2.6c0.3-0.7,0.7-1.4,1.1-2
			c1.6-2.7,2.8-5.8,4.1-9.1c2.8-7,6-14.9,13.3-20.8c0.2-0.2,0.4-0.3,0.6-0.5c1.7-1.4,4.5-3.8,8.7-3.8c0.6,0,1.1,0,1.7,0.1
			c0.8-3.6,2.7-8,8.4-8c2.3,0,4.1,0.9,5.9,2.1c1-0.7,1.9-1.3,2.9-2c0-1.5,0.4-3,1.1-4.2c0.4-0.8,1-1.5,1.7-2.1
			c1.7-1.5,3.9-2.3,6.2-2.3c0.1,0,0.3,0,0.4,0c3.1-7.8,9.2-12.4,16.7-12.4c3.1,0,6.3,0.8,9.5,2.4c0.6,0.3,1,0.3,1.2,0.3
			c0.9,0,2.4-0.7,4-1.4c0.7-0.3,1.4-0.6,2.1-0.9c0.9-0.4,1.8-0.5,2.8-0.5c1.1,0,2.1,0.2,3.1,0.7l1.9,0.8c5.8-2,11.7-2.4,17-2.7
			c4.3-0.3,8.3-0.5,12-1.6c2-0.6,4.1-0.9,6.3-0.9c3.8,0,7.2,0.9,10.3,1.6c2.2,0.5,4.2,1.1,6,1.2c1.5,0.1,2.9,0.4,3.9,0.7
			c0.4,0.1,0.9,0.2,1.3,0.3c1.3-0.6,2.8-0.9,4.3-0.9c3.8,0,7,1.9,8.6,4.9c0.1,0,0.2,0,0.3,0c6.7,0.2,11.8,3.3,15.9,5.9
			c1,0.6,1.9,1.2,2.8,1.7c5.2,3,10.2,4.5,14.6,4.5c2.8,0,5.3-0.6,7.8-1.7c8.8-4,15-8.2,19.4-13.3c1.6-1.9,3.6-2.4,4.4-2.7l0.1,0
			c0.8-0.3,1.7-0.5,2.6-0.5c1.1,0,2.1,0.2,3.1,0.7c1.8,0.8,3.3,2.4,3.9,4.3c2.2,6.2,0,11.5-1.7,14.5c0.4,0.9,0.6,1.8,0.6,2.7
			c0,0.6,0,1.3,0,1.9c0,1.1,0,2.1,0.1,2.9c0.4,4.1-0.2,9.4-4.3,14.3c9.4,8.8,14,20.1,17.2,30.2c0.7,2.2,0.4,4.5-0.9,6.5
			c-1.3,1.9-3.3,3.1-5.6,3.3c-0.4,0-0.7,0-1,0c-1.2,0-2.2-0.2-3.2-0.5c3.1,6.5-0.6,12.6-2,14.9c-0.2,0.4,0.1,2.2,1.6,4.1
			c5.8,7,4.7,12.7,2.5,16.4c1.8,5,0.2,9.1-1.9,12.1c3.5,2.9,6.6,6.8,9.3,11.7c1.5,2.7,3.2,5.3,5,8c0.7,1,1.4,2.1,2,3.2
			c0.3,0.5,0.6,1,0.8,1.6c0.5,1.4,0.6,2.7,0.5,3.7c0.4,0.2,0.9,0.3,1.3,0.5c1.9,0.7,3.8,1.3,5.8,2.2c0.1,0,0.2,0,0.3,0
			c8.1,1.2,9.2,6.9,9.3,9.2c0,0.9,0,2.4-0.7,4c3.7,1.1,7.3,2.4,10.8,3.7c3.6,1.4,7,2.6,10.5,3.6c3.2,0.9,5.4,3.8,5.5,7.1
			c0.1,3.3-2,6.3-5.2,7.3c-4.9,1.6-9.3,2.5-13.4,2.7c3.4,2.3,6.8,3.9,10.7,4.6c2.6,0.4,4.9,1.9,6.3,4.1c1.3,2.1,1.7,4.6,1.1,7
			c-0.6,2.2-2.5,6-8.5,6.9c-2.5,0.4-4.9,0.5-7.2,0.5c0,0,0,0,0,0c-10.8,0-19.5-4.1-25.8-12.2c-0.9-1.1-1.7-2.2-2.4-3.3
			c-0.1,0.8-0.2,1.7-0.4,2.5c-1.1,5.7,0.8,10.2,7,16c2,1.8,3.8,3.7,5.5,5.6l0.4,0.4c4.2,4.5,3.3,9.4,1.3,12.2
			c-1.8,2.5-4.6,3.9-7.7,3.9c-1.4,0-2.7-0.3-4-0.8c-7.5-3.1-17-8-23-17.7c-1.8-2.9-1.9-5.8-2-7.5l0-0.4c0-0.8-0.1-1.6-0.1-2.4
			c-0.1-2.2-0.2-4.4-0.5-6.3c-0.1-0.6-0.2-1.1-0.3-1.6c-0.4,0.2-0.8,0.4-1.3,0.7c-3.4,2-8,4.3-13.3,5.7c1,8.4-5,12.4-7.1,13.8
			c-0.6,0.4-1.3,0.7-2,0.9c-2,0.6-3.9,0.9-5.6,1.2c-2.3,0.4-3.8,0.7-4.9,1.3c-5.3,5.8-10.3,12.3-11.7,20.5c0,0.1,0,0.3,0,0.4
			c-0.4,8.7-6.6,10.3-9.2,10.5c-0.4,0-0.7,0.1-1.1,0.1c-6.2,0-9.1-4.8-10.3-6.8l-0.2-0.3c-1.8-3.1-2.5-6-2.6-8.8
			c-3.4,0.9-6.5,1.1-8.6,1.1c-1.8,0.1-2.3,0.1-4,2.5c-2.5,3.4-9.2,12.5-20.7,12.8l-0.1,0C244.2,289.5,243.8,289.6,243.5,289.6z
			 M93.3,140.6c-0.1,0.2-0.2,0.6-0.3,1.2c-0.6,3.2-1,6-1.2,8.7c2.1-0.3,4.4-0.5,6.7-0.5c0.6,0,1.2,0,1.7,0c0,0,0-0.1,0-0.1
			c0.2-1.7,0.4-3.1,0.1-3.9c-1.4-3.6-0.9-8.2,1.2-11.5c2.1-3.3,2.6-7.3,3.3-12c0.3-1.8,0.5-3.7,0.9-5.6c0-0.1,0-0.2,0-0.2
			c-0.5-1.3-0.7-2.6-0.8-3.8c-0.2,0.5-0.4,1.3-0.5,2.8C103.9,123.6,102.2,133.5,93.3,140.6z"/>
		<path d="M158.7,17c1.3,0,2.6,0.1,3.9,0.2c0,1.9-1.6,2.3-2.9,2.9c-9.5,4.6-18.1,10.6-25.9,17.6c-15.3,13.7-27.2,29.5-29.2,50.9
			c-0.2,2.5-0.5,4.9-0.2,7.4c0.4,4-0.5,7.8-3.6,10.4c-2.8,2.4-3.5,5.3-3.8,8.8c-0.5,7.6-2.1,14.8-8.7,19.9c-1.6,1.2-2.1,3.3-2.5,5.3
			c-0.9,4.4-1.5,8.9-1.5,13.4c0,4.2,0,5.6,1.7,5.6c0.9,0,2.3-0.4,4.4-0.9c2.7-0.7,5.5-1,8.2-1c1.7,0,3.4,0.1,5.1,0.3
			c0.3,0,0.6,0.1,0.9,0.1c1.9,0,2.9-0.8,2.8-3.2c-0.1-3.8,1.4-7.5-0.1-11.3c-0.5-1.4-0.3-3.6,0.5-4.8c3.9-6.2,3.9-13.3,5.2-20.1
			c0.3-1.4,0.3-2.6-0.2-3.9c-1.1-2.7-0.3-5.3,0.9-7.7c2-4.2,3.5-9,5.6-12.6c5.4-9.2,6.8-20.6,15.7-27.9c1.6-1.3,2.8-2.6,4.6-2.6
			c0.6,0,1.2,0.1,1.9,0.4c1.3,0.6,2.4,0.8,3.2,0.8c2,0,3-1.6,3.5-5c0.4-2.9,0.7-4.2,1.5-4.2c0.7,0,1.7,0.8,3.6,2.2
			c0.6,0.5,1,1.6,1.8,1.6c0.3,0,0.5-0.1,0.9-0.4c3.8-2.7,7.7-5.2,11.4-8.1c2.1-1.7-2.2-1.6-1.2-3.3c0.4-0.3,0.8-0.5,1.3-0.5
			c0.5,0,1,0.2,1.5,0.4c0.9,0.3,1.6,0.5,2.1,0.5c1.7,0,2.4-1.4,3.1-3.8c1.8-6.1,5.5-9.4,10.4-9.4c1.9,0,4,0.5,6.1,1.6
			c1.6,0.8,3.1,1.1,4.5,1.1c3.2,0,5.9-1.6,8.9-2.8c0.7,0.3,1.3,0.6,2,0.9c0.5,0.9,1.2,1.3,2,1.3c0.5,0,1-0.1,1.5-0.3
			c9.8-4.2,20.5-2,30.5-4.9c1.4-0.4,2.8-0.6,4.2-0.6c5.3,0,10.5,2.4,15.8,2.8c2,0.1,3.9,1,5.9,1c0.9,0,1.8-0.2,2.7-0.6
			c0.4-0.2,0.9-0.3,1.4-0.3c0.9,0,1.9,0.4,2.1,1.3c0.9,3.9,3.6,3.5,6.5,3.6c5.9,0.1,10.4,3.9,15.3,6.6c5.9,3.3,12,5.4,18.3,5.4
			c3.6,0,7.3-0.7,10.9-2.4c8-3.6,15.9-8.3,21.9-15.1c0.3-0.3,0.8-0.4,1.5-0.6c1.3,3.6-0.2,6.6-1.8,9.4c-1.2,2.1-1.1,3.7,0.2,5.4
			c0,1.8-0.1,3.7,0.1,5.5c0.6,5.7-2.2,9.4-6.8,12.2c-2.2,1.4-0.4,2.4,0.6,3.3c10.4,7.6,15.5,18.5,19.4,30.5c-0.1,0-0.3,0-0.4,0
			c-2.1,0-2.8-1.7-3.7-2.8c-3.4-3.7-7.8-4.9-12.5-5.5c-0.4-0.1-0.8-0.1-1.2-0.1c-0.6,0-1.1,0.2-1.4,0.9c-0.5,1.1,0.2,1.9,1,2.6
			c3,2.7,4.6,6,4.6,10.1c0,0.7,0.4,1.7,0.9,2.2c3.9,3.4,3.5,6.2,0.7,10.7c-2.3,3.7-1,9,2.2,12.8c2.6,3.1,3.9,6.3,0.4,9.6l0,0
			c-2.9,1.1-1.7,2,0.1,3l0,0c2.7,4.6-0.4,7.5-3.3,10.1c-2.2,2-2.7,2.7,0.5,4.3c5.2,2.6,8.7,7.2,11.4,12.1c2.2,4,4.8,7.8,7.3,11.6
			c0.6,1.6-1.1,3.6,0.9,5c0.1,2.4,2.1,2.6,3.8,3.2c2.5,0.9,5,1.7,7.3,2.8c1.7,0.8,4.7,0.1,4.8,2.6c0.1,1.7-2.5,1.8-4,2.3
			c-1.1,0.4-1.3,1.1-0.7,1.9c2.4,2.7,4.8,5.4,8.6,6.4c7.5,2.1,14.5,5.4,22.1,7.6c-4.5,1.5-8.8,2.4-13.1,2.4c-5.9,0-11.6-1.7-17-6.2
			c0.2,5.8,5.5,12.6,9.4,15.8c5.8,4.7,11.6,8.6,19.1,9.8c0.9,0.1,1.6,0.7,1.4,1.7c-0.3,1.1-1.4,1.3-2.4,1.5
			c-2.1,0.3-4.1,0.5-6.1,0.5c-7.7,0-14.6-2.5-19.9-9.4c-2.8-3.5-5.1-7.4-7.6-11.1c-1.4-2-2.9-4.1-4.5-5.9c-0.9-1-2.2-2.4-3.4-2.4
			c-0.5,0-1,0.3-1.4,0.9c-0.9,1.5-4.2,4.1-0.7,6.7c2.4,1.8,2.7,4.4,2.3,7.2c-0.3,2.3-0.3,4.7-0.8,6.9c-1.9,9.7,2.6,16.7,9.2,22.9
			c1.9,1.8,3.8,3.8,5.6,5.7c0.7,0.7,1.3,1.7,0.6,2.7c-0.4,0.6-1,0.8-1.6,0.8c-0.4,0-0.7-0.1-1.1-0.2c-7.8-3.2-14.9-7.3-19.6-14.8
			c-0.8-1.4-0.8-2.8-0.9-4.3c-0.2-3.2-0.2-6.3-0.6-9.5c-0.9-5.8-2.7-8.6-6-8.6c-1.8,0-4,0.8-6.7,2.3c-3.9,2.2-8,4.2-12.4,5.2
			c-4.1,0.9-5.4,4.1-4.8,6.8c0.9,4.1-0.8,5.9-3.6,7.7c-4.4,1.3-9.3,0.9-13.2,3.9c-6.7,7.2-12.5,14.9-14.2,25
			c-0.3,1.9,0.3,4.4-2.5,4.7c-0.1,0-0.2,0-0.4,0c-2.1,0-3.1-1.9-4-3.5c-3.2-5.3-0.8-10,1.8-14.5c1.3-2.2,3-4.2,5-6.9
			c-4.2,0.5-8.1,0.2-10.1,3.4c-3.5,5.7-9,6.5-14.6,6.7c-4.5,0.2-6.9,1.6-9.8,5.6c-3.4,4.6-7.9,9.6-14.8,9.7c-0.3,0-0.7,0.1-1,0.1
			c-0.6,0-1.2-0.2-1.4-1c-0.3-1.1,0.8-1.3,1.5-1.7c3.8-2.2,6.1-6,9.5-8.7c1.3-0.7,2.6-1.9,1.5-3.3c-0.2-0.2-0.4-0.3-0.6-0.3
			c-0.7,0-1.5,0.9-2.1,1.5c-10.2,5.2-19.5,12.5-31.6,12.8c-0.8,0-1.5,0.1-2.3,0.1c-0.6,0-1.1,0-1.7-0.2c-2.6-0.6-5.2-2.4-4.5-5
			c0.3-1.1,0.9-1.4,1.7-1.4c1.1,0,2.5,0.7,3.5,1c2,0.5,3.9,0.8,5.8,0.8c3.8,0,7.3-1.1,10.7-3.6c2-1.4,4.4-2.3,6.6-3.5
			c1.1-0.1,1.5-0.7,1.2-1.7c-0.2-0.7-0.6-0.9-1.1-0.9c-0.3,0-0.6,0.1-0.9,0.1c-1.7,0.4-3.3,0.5-5,0.5c-0.8,0-1.5,0-2.3,0
			c-7.9-0.2-15.8,0.1-23.6-0.9c-1.7-0.6-3.5-1-5.1-1.8c-1.8-1-3.6-1.5-5.3-1.5c-1.9,0-3.8,0.7-5.6,2.4c-0.6,0-1.2-0.1-1.8-0.1
			c-1.1,0-2,0.3-2.3,2l0,0c-1.9,0.1-3,1.5-3.9,2.9c-0.7,0.4-1.3,0.8-2,1.1c-0.3-0.6-0.7-1.3-1-1.9c3.4-3,6.8-6,10.2-9
			c-1.6,0.3-3.3,0.4-4.9,0.4c-9,0-17.5-3.6-26.7-3.6c1.4-2.6,3.2-1.9,4.4-2.6c0.6-0.1,1.3-0.1,1.9-0.1c2.3,0,4.5,0.3,6.8,0.3
			c1.6,0,3.3-0.2,4.9-0.8c-3.8-1-7.5-3-11.4-3c-1.7,0-3.5,0.4-5.3,1.4c-3.6-0.6-7.3-0.8-10.7-1.9c-3.1-1-6-1.6-9-1.6
			c-2.8,0-5.5,0.6-8.3,1.9c-0.3,0.2-0.7,0.2-1.1,0.2c-1,0-2.2-0.4-3.3-0.6c-1.4-0.2-2.8-0.4-4.1-0.4c-3.4,0-6.6,0.9-9.5,3.3
			c-0.1-0.1-0.2-0.1-0.3-0.1c-0.6,0-1.4,0.9-1.9,0.9c-0.4,0-0.6-0.4-0.6-1.6c0.5-0.6,1.2-1.2,1.6-1.9c0.8-1.4,3.5-1.8,2.8-3.6
			c-0.9-2.1-3.4-1.5-5.4-1.7c-0.5,0-0.9-0.1-1.4-0.1c-5.6,0-10.6,2.7-15.9,4.1c-1,0.3-2,0.9-3.3,0.9c-0.5,0-1-0.1-1.5-0.3
			c2.8-5.6,8.2-7.2,13.1-9.5c1.9-0.2,3.8-0.3,5.7-0.3c3.3,0,6.9,0.3,10.9,0.9c-4.6-4.5-8.9-5.9-13.6-5.9c-0.7,0-1.4,0-2.1,0.1
			c-0.3,0-0.5,0-0.8,0c-1.3,0-1.6-0.4-0.2-1.8c2.2-0.7,4.4-1.1,6.5-1.1c3.2,0,6.3,0.8,9.3,2.5c1.2,0.7,2.4,1,3.5,1
			c1.2,0,2.3-0.4,3.4-1.3c2.8-2.2,5.6-4.6,8.4-6.8c2-0.8,3.9-1.2,5.9-1.2c2,0,4.1,0.4,6.2,1.1c1.3,0.4,2.5,0.6,3.8,0.6
			c3,0,5.9-1.1,8.6-2.8c0.9-0.5,1.6-1.4,1.1-2.5c-0.3-0.6-0.7-0.7-1.2-0.7c-0.3,0-0.7,0.1-1,0.2c-0.7,0.2-1.5,0.3-2.2,0.3
			c-2.1,0-4.1-0.7-6.2-1c-1.6-0.3-3.4-0.8-5.1-0.8c-1.1,0-2.2,0.3-3.1,1.1c-3.1,2.7-6.5,3.5-9.9,3.5c-3,0-6-0.6-9-1
			c-0.9-0.7-1.9-1.3-2.7-2.1c-2-1.9-3.7-2.8-5.5-2.8c-1.9,0-3.9,1-6.5,2.8c-5,3.6-11.1,5.8-17.8,5.8c-2,0-4.2-0.2-6.3-0.6
			c2.8-2.8,5.7-2.9,8.6-3.1c0.5,0.2,1.1,0.2,1.6,0.2c1.8,0,3.5-0.8,5.1-1.5c1.3-0.5,3-1.6,2.8-3.2c-0.2-1.3-1.1-1.5-2.2-1.5
			c-0.5,0-1,0-1.4,0c0,0-0.1,0-0.1,0c-1,0-2,0-3,0c-1,0-2,0-2.9,0c-0.8,0-1.6,0-2.5,0c0,0-0.1,0-0.1,0c-2.3,0-4,0.9-4.9,3.2
			c-1.1,2.2-3.2,3-5.4,3.6c1.6-3.4,4.2-5.9,6.2-8.8c0.7-1,1.8-1.3,3.1-1.3c1.6,0,3.5,0.6,4.9,0.9c0.9,0.2,1.7,0.3,2.5,0.3
			c4.4,0,7.2-3,10.6-5.6c-4.5-2.2-8.8-3.3-12.9-3.3c-6.2,0-12.1,2.3-18,6.4c-4.8,3.3-10.2,5.5-16.2,5.5c-0.8,0-1.6,0-2.5-0.1
			c-2.5-0.2-1.8-1.1-1.2-2.4c0.6-0.1,1.2-0.2,1.7-0.4c0.5,0.1,1.1,0.1,1.6,0.1c2.8,0,5.2-1,7.3-3.3c-0.9,0.8-1.7,1-2.6,1
			c-1.8,0-3.6-1.1-5.3-1.1c-0.6,0-1.2,0.1-1.8,0.5c-1.5,0.8-3.2,1.2-4.2,2.8c-1.9,1.3-3.7,2.7-5.7,4c-0.4,0.2-0.8,0.4-1.2,0.4
			c-0.6,0-1.1-0.3-1.5-0.9c-0.5-0.8,0-1.6,0.7-2.2c5.7-4.4,10.6-10.2,18.7-10.6c3.1-0.1,6.3-0.6,9.2-3c-3.4-2.9-7.1-4.6-11-4.6
			c-1.7,0-3.4,0.3-5.1,1C47,204,38.6,205.2,30,206c-0.2,0-0.3,0-0.4,0c-2,0-2.7-1.5-4.1-2.3c-2-1.1-4.2-2-6.3-2.9
			c-0.4-1.1-2.8-0.5-2.2-2.7c2.7,0.3,5.4,0.5,8.2,0.8c0.8,0.5,1.6,0.7,2.4,0.7c1.4,0,2.8-0.7,4.3-1.2c-0.8-1.8-2.3-1.4-3.5-1.8
			c-1.2-1.8-4.6,0.4-5.1-2.8c4.2-1.3,8.8-1.1,13-3c0.5,0.1,1.1,0.2,1.6,0.2c1.3,0,2.6-0.4,3.6-1.1c1.6-1.1,3.3-1.5,4.9-1.5
			c1.3,0,2.6,0.2,3.9,0.5c0.4,1.1,1,1.4,1.7,1.4c0.7,0,1.5-0.3,2.2-0.3c0.3,0,0.5,0,0.7,0.1c0.3,0.1,0.6,0.2,0.8,0.2
			c0.7,0,1.2-0.5,1.2-1.4c0.1-1.2-0.8-1.4-1.9-1.5c-1.9,0-3.8-0.4-5.7-0.6c0,0,0,0,0,0c-1-0.5-1.3-2-2.7-2c-0.1,0-0.2,0-0.4,0
			c-7.3-15.5-7.6-31.2-0.9-47c1.3-3.1,2.5-6.2,2.4-9.6c-0.1-4.8,2.2-8.2,6-10.8c3.2-2.2,5.8-4.9,7.3-8.6c1.8-4.3,5.8-6.8,8.8-10.1
			c6.7-7.4,9.8-17.3,16.7-24.5C87,73.6,89,71,86.9,69c-1.1-1-0.4-2.2,0.8-2.9c0.5-0.3,1.3-0.4,1.3-1.2c0.4-4.2,0.4-4.2,4.5-7.7
			c0.6-0.6,0.7-1.1,0.3-1.7c-1.4-2-1.1-2.7,0-2.7c0.5,0,1.1,0.1,1.9,0.3c0.2,0,0.3,0.1,0.5,0.1c-0.8-2.8,2-3.2,3-4.8
			c1.5-2.2,2.3-5,4.9-5c0.7,0,1.6,0.2,2.6,0.7c-0.8-3.4-0.1-4.4,1.2-4.4c1.1,0,2.7,0.7,4.2,1.1c-0.4-2-1.8-4.7,0.7-4.7
			c0.4,0,1,0.1,1.7,0.3c0.3,0.1,0.7,0.1,0.9,0.1c0.7,0,1.1-0.3,1.2-1.3c0.1-1.4,0.5-2.1,1.1-2.1c0.5,0,1,0.4,1.6,1.2
			c0.7,0.9,1.3,1.3,2,1.3c0.8,0,1.6-0.5,2.6-1c4.5-2.1,7.5-6.2,11.4-9.2c4-3.1,8.3-4.6,12.6-6.4C151.3,17.6,154.9,17,158.7,17
			 M182.6,45.2c0.7,0,1.1-0.7,1.5-1.3c0.1-0.7-0.2-1.2-0.8-1.2c-0.1,0-0.2,0-0.2,0c-0.5,0.1-1.1,0.5-1.4,1c-0.4,0.6-0.1,1.3,0.7,1.5
			C182.4,45.2,182.5,45.2,182.6,45.2 M83.3,197.6c0.2,0,0.3,0,0.2,0c0,0,0,0,0,0c1.3-0.2,2.3-0.4,3.1-0.4c0.2,0,0.3,0,0.4,0
			c0.3,0,0.6,0.1,0.8,0.1c2.9,0,3.5-2.4,3.5-4.7c0-1.9-1.1-2-2.4-2c-0.2,0-0.4,0-0.6,0c-0.4,0-0.9,0-1.2-0.1
			c-0.4-0.1-0.8-0.2-1.2-0.2c-1.6,0-3,0.9-4.4,1.5c-2,0.9-6,0.1-5.6,2.6c0.4,2.9,4.5,2.5,7.2,3.2C83.1,197.6,83.2,197.6,83.3,197.6
			 M42.6,199.6C42.6,199.6,42.6,199.6,42.6,199.6c1-0.1,1.5-0.7,1.3-1.7c-0.2-0.7-0.6-0.9-1.2-0.9c-0.1,0-0.2,0-0.3,0
			c-0.8,0.1-1.1,0.7-1,1.4C41.4,199.2,41.9,199.6,42.6,199.6 M130.7,215c0.8,0,1.6-0.3,2.5-1c-1-0.8-1.8-1.2-2.8-1.2
			c-0.8,0-1.8,0.3-2.8,1.1C128.8,214.6,129.7,215,130.7,215 M123,220c0.2,0,0.5,0,0.7,0c0,0,0,0,0,0c1.2,0.9,2.4,1.3,3.7,1.3
			c0.9,0,1.7-0.2,2.6-0.5c0.1,0,0.3,0,0.4,0c0.7,0,1.2-0.3,1.5-1c0.3-0.9-0.2-1.6-1.1-1.7c-1.6-0.2-3.2-0.2-4.7-0.3
			c-2.8-1-5-3.2-8.1-3.2c-0.2,0-0.4,0-0.6,0c-0.8,0-1.6,0.1-2,1c-0.5,1.2,0.5,1.8,1.3,2.3C118.7,219.1,120.7,220,123,220 M164,232.8
			c0.2,0,0.5,0,0.7,0c0.3,0,0.6,0,0.8,0c2.3-0.2,5.6,0.3,5.9-2.3c0.1-1.3-0.5-1.6-1.4-1.6c-0.6,0-1.3,0.1-2,0.1
			c-0.5,0-0.9-0.1-1.2-0.3c-0.3-0.2-0.6-0.2-0.9-0.3c-0.8-0.3-1.6-0.8-2.4-0.8c-0.5,0-1.1,0.3-1.5,1c-0.4,0.8-0.7,2-0.4,2.8
			C162.1,232.6,163,232.8,164,232.8 M191.4,247.3c0.9,0,1.8-0.3,2.6-0.9c5.3-4.1,9.8-9.4,16.7-11.4c-1.2-0.3-2.3-0.4-3.4-0.4
			c-8.7,0-14.2,7.9-22,10.1C187.3,245.8,189.3,247.3,191.4,247.3 M152.7,243.6c0.2-0.3,0.4-0.7,0.6-1c-1.5-1.8-2.9-3.8-4.5-5.4
			c-1-0.9-2.4-1.4-3.8-1.4c-1.9,0-3.9,0.8-5,2.2c-0.9,1.1-1.7,2.3,0.5,2.9C144.5,241.9,148.6,242.8,152.7,243.6 M158.7,2
			c-6.3,0-11.8,1.1-16.9,3.3c-0.7,0.3-1.5,0.6-2.2,0.9c-3.9,1.6-8.8,3.7-13.6,7.4c-2,1.5-3.6,3.1-5,4.4c-0.1,0.1-0.3,0.3-0.4,0.4
			c-1.1-0.2-2.1-0.3-2.9-0.3c-3.6,0-7.4,1.3-10.3,3.9c-2.5,0.9-4.8,2.3-6.6,4.3c-2.2,1-4.1,2.5-5.6,4.4c-1.5,0.9-2.9,2-4.2,3.3
			c-1.6,1.7-2.6,3.3-3.4,4.6c-0.2,0.2-0.4,0.4-0.6,0.6c-3.1,1.4-5.6,3.8-7.2,6.8c-0.7,1.3-1.5,3.2-1.7,5.6c-1.3,1.7-2.2,3.6-2.8,5.8
			c-2,2.4-3.2,5.4-3.6,8.5c-0.1,1-0.1,1.9-0.1,2.9c-2.7,3.6-4.8,7.2-6.7,10.5c-2,3.6-4,6.9-6.1,9.3c-0.5,0.5-1.2,1.2-2,1.9
			c-2.8,2.6-7.1,6.5-9.6,12.6c-0.1,0.3-0.3,0.8-1.9,1.9c-8.3,5.7-12.7,14-12.5,23.5c-0.1,0.7-0.9,2.7-1.2,3.4
			c-6.4,15.3-7.7,30.6-3.8,45.6c-0.4,0.1-0.8,0.1-1.2,0.2c-2.2,0.3-4.9,0.8-7.8,1.7c-2.8,0.9-5.1,2.5-6.9,4.5
			c-4.4,1.6-8,5.3-9.3,10.1c-2.1,7.7,1.1,15.1,7.9,18.8c0.8,0.6,1.7,1.1,2.6,1.5c0.7,0.3,1.4,0.6,2.1,0.9c0.8,0.4,1.6,0.7,2.3,1
			c1.7,1.4,5.1,3.9,10.2,4.5c0.2,2.4,0.9,4.7,2.2,6.9c3,5.1,8.4,8.2,14.4,8.2c2.8,0,5.5-0.7,7.9-2c0.6,0.1,1.3,0.2,2,0.3
			c1.3,0.1,2.6,0.2,3.9,0.2c2.5,0,4.9-0.2,7.4-0.7c0.3,0.4,0.6,0.8,0.9,1.3c1.9,2.3,4.4,3.9,7.2,4.7c1,0.7,2.1,1.3,3.2,1.8
			c-0.4,0.6-0.7,1.2-1,1.9c-2,3.9-2.1,8.4-0.5,12.4c1.6,4,4.9,7.1,9,8.5c2.1,0.7,4.3,1.1,6.4,1.1c3.6,0,6.3-1,7.6-1.5
			c0.8-0.2,1.6-0.5,2.4-0.7c2.9,3.8,7.4,6.1,12.3,6.1c2.7,0,5-0.7,6.6-1.4c1.7-0.5,3.4-1.4,4.9-2.6c0.1,0,0.1,0,0.2,0
			c0.3,0,0.7,0,1.4,0.1c0.1,0,0.2,0.1,0.4,0.1c1.2,0.3,3.2,0.7,5.5,0.7c2.7,0,5.3-0.6,7.6-1.7c0.6-0.3,1.1-0.4,1.8-0.4
			c1.1,0,2.6,0.3,4.4,0.9c0.4,0.1,0.9,0.3,1.3,0.4c2.7,4.3,7.5,7,12.6,7c2.1,0,4.4,0.3,6.9,0.8c0.3,1.2,0.7,2.3,1.3,3.4l0.6,1.1
			l0.4,0.8c1.9,3.6,5.2,6.4,9.1,7.5c1.4,0.4,2.8,0.6,4.2,0.6c2.6,0,5.2-0.7,7.5-2l2-1.1c1.2-0.7,2.3-1.5,3.2-2.5
			c0.5-0.3,1-0.5,1.4-0.8c0.2-0.1,0.4-0.1,0.6-0.2c1.2,7.5,7.2,13.7,15.9,15.8c1.6,0.4,3.3,0.6,5.2,0.6c0.8,0,1.5,0,2.1-0.1
			c0.2,0,0.4,0,0.5,0c4.8-0.1,9.3-1,13.4-2.3c2.7,1.9,5.9,2.9,9.5,2.9c0.7,0,1.2,0,1.6-0.1c14.5-0.4,22.9-11.1,26-15.3
			c0.4,0,0.7,0,1.1-0.1c0.5,1.4,1.2,2.7,2,4.1l0.2,0.3c4.1,7,9.8,10.5,16.7,10.5c0.6,0,1.2,0,1.8-0.1c6.1-0.6,11.4-4.1,14-9.5
			c1.7-3.4,1.8-6.5,1.9-8.1c1-5.3,4.1-9.8,8.5-14.8c0.6-0.1,1.3-0.2,1.9-0.3c1.8-0.3,4.1-0.7,6.6-1.4c1.4-0.4,2.7-1.1,3.9-1.9
			c6.7-4.4,9.3-9.7,10.2-14.5c0.2-0.1,0.4-0.2,0.7-0.3c0.1,2.3,0.5,6.4,3.1,10.5c7.2,11.5,18,17.1,26.5,20.7
			c2.2,0.9,4.5,1.4,6.9,1.4c5.4,0,10.6-2.6,13.8-7c3.5-4.8,4.7-12.2,0.4-18.8c2.6,0.5,5.2,0.7,7.9,0.7c2.6,0,5.4-0.2,8.2-0.6
			c10.9-1.6,14-9.9,14.7-12.4c1.2-4.4,0.5-9.2-2-13c-0.7-1.1-1.5-2.1-2.5-3c3.3-2.9,5.4-7.1,5.3-11.7c-0.1-6.6-4.6-12.3-10.9-14.1
			c-3.2-0.9-6.5-2.1-9.9-3.4c-1.7-0.6-3.5-1.3-5.3-1.9c-0.4-3.5-2.6-13.1-15-15.3c-0.8-0.3-1.6-0.7-2.4-0.9
			c-0.1-0.2-0.1-0.4-0.2-0.6c-0.4-1.1-0.9-2.2-1.6-3.2c-0.7-1.1-1.4-2.1-2.1-3.2c-1.7-2.6-3.3-5.1-4.7-7.5c-2-3.7-4.3-7-6.7-9.7
			c1-3.2,1.2-6.5,0.7-9.8c2.3-5.9,2-13.2-3.7-20.8c1.4-3,2.2-5.8,2.4-8.3c3-1.1,5.6-3.1,7.4-5.8c2.5-3.8,3.2-8.6,1.8-12.9
			c-3-9.5-7.2-19.9-14.9-28.9c2.5-5.4,2.6-10.6,2.3-14.1c0-0.4,0-1.3,0-2.1c0-0.7,0-1.4,0-2.1c0-0.6-0.1-1.2-0.1-1.8
			c1.8-4.2,3.4-10.6,0.8-17.9c-1.4-3.8-4.2-6.9-7.9-8.6c-2-0.9-4.1-1.4-6.2-1.4c-1.7,0-3.3,0.3-4.9,0.8c-1.3,0.4-4.9,1.5-7.9,4.9
			c-3.7,4.2-9,7.8-16.9,11.4c-1.5,0.7-3.1,1-4.7,1c-3.1,0-6.8-1.2-10.9-3.5c-0.8-0.4-1.7-1-2.6-1.6c-4-2.5-9.3-5.7-16.2-6.7
			c-3.1-3.2-7.6-5.2-12.5-5.2c-1.6,0-3.2,0.2-4.7,0.6c-1.1-0.3-2.6-0.5-4.3-0.7c-1.1-0.1-2.8-0.5-4.6-1c-3.3-0.8-7.4-1.9-12.1-1.9
			c-2.9,0-5.7,0.4-8.4,1.2c-2.8,0.8-6.5,1.1-10.3,1.3c-4.9,0.3-10.4,0.6-16,2.2c-1.7-0.7-3.6-1-5.4-1c-1.9,0-3.8,0.4-5.6,1.1
			c-0.8,0.3-1.6,0.7-2.3,1c-0.2,0.1-0.5,0.2-0.7,0.3c-3.6-1.5-7.3-2.3-11-2.3c-2.6,0-5.1,0.4-7.4,1.1c0.3-1.5,0.4-2.8,0.5-3.7
			c0.1-7.9-5.9-14.5-13.8-15.2C162,2.1,160.4,2,158.7,2L158.7,2z"/>
	</g>
	<path class="st0" d="M128.3,226.9c1,0.1,1.9,0.1,2.9,0C130.3,226.7,129.3,226.8,128.3,226.9z"/>
</g>
</svg>
