<?xml version="1.0" encoding="utf-8"?>
<!-- Generator: Adobe Illustrator 24.1.0, SVG Export Plug-In . SVG Version: 6.00 Build 0)  -->
<svg version="1.1" id="Livello_1" xmlns="http://www.w3.org/2000/svg" xmlns:xlink="http://www.w3.org/1999/xlink" x="0px" y="0px"
	 viewBox="0 0 340.2 470.4" style="enable-background:new 0 0 340.2 470.4;" width="50" height="50" xml:space="preserve">
<style type="text/css">
	.st0{fill:#FEFEFE;}
</style>
<g>
	<path class="st0" d="M164.7,456.4c-1.8,0-3.6-0.3-5.8-0.9c-3-0.9-10.7-3.1-12.3-10c-1.6-6.9,4.1-12.2,6.6-14.5
		c1.1-1.1,2.3-2.4,3.5-3.8c2.3-2.6,4.9-5.5,8.3-7.9c3.5-2.5,4-2.9-0.4-11.3l-0.3-0.6c-16.1-30.1-32.9-66.4-36.1-107.9
		c-0.6-8.7,1.4-16.5,3.3-24.1c1.7-6.5,3.2-12.6,2.9-18.5c-0.1-1.8,0-3.4,0.2-4.7c0-0.4,0.1-0.8,0.1-1.1c-6-13.3-3.3-24.6,7.8-32.2
		c-2.4-5.9-5.1-10-8.5-12.7c-9.4-7.8-16.8-16.7-22.2-23.6c-14.7-17.1-16.1-27.3-3.5-42.3c-5.3-5-8.8-11-12-16.5
		c-3.2-5.5-6.3-10.7-10.7-14.5c-1.5-1.2-2.9-2.5-4.2-3.7c-3.4-3-6.3-5.6-10-7.1h-0.1c-14.9-6.3-27.1-16.9-35.1-30.8
		c-1.9-3.2-5.1-5.3-8.9-7.7c-4-2.5-8.5-5.4-11.9-10.2c-1.5-2.1-1.8-4.8-0.9-7.2c0.8-1.9,1.5-3.4,2.3-5c1.2-2.3,3.4-3.9,6-4.1
		c0.2,0,0.5,0,0.7,0c1.2,0,2.4,0.3,3.5,0.8C33.9,20.2,44.5,18,50.5,18c3.9,0,8,0.9,12.2,2.6c1.6-5.9,6.8-7.1,9.4-7.3
		c0.2,0,0.4,0,0.6,0h0.4c2.1,0,6,0.5,8.4,4.1c1.3-0.8,2.9-1.4,4.9-1.4c2.9,0,5.4,1.3,7.7,3.8c0.1,0.1,0.2,0.2,0.2,0.3
		c3,3.9,3.2,7.5,2.8,9.8c-1,5.8-6.1,9.1-9.5,11.2c-0.7,0.4-1.3,0.8-1.7,1.1c-0.2,0.1-0.4,0.3-0.5,0.4c0.1,0.2,0.1,0.3,0.2,0.5
		c0,0.1,0.1,0.2,0.1,0.3c3,8.9,5.7,18,8.4,26.8c2.1,7,4.3,14.3,6.6,21.2c0,0.1,0,0.1,0.1,0.2c0.2,0.8,1.3,2.5,3.6,4.6
		c0.9,0.8,1.8,1.6,2.8,2.4c5,4,11.1,9,12.7,18.2c0.1-0.1,0.1-0.1,0.2-0.2c0.7-0.5,1.6-1.2,2.3-1.8c-2.5-4.8-3-9.5-3.4-13.3
		c-0.2-1.6-0.3-3.1-0.6-4.4c-0.1-0.4-0.1-0.9-0.1-1.3c0-2.2-0.2-4.4-0.3-6.7c-0.4-7-0.9-14.8,1.4-22.7c-1.6-1.1-2.7-2.8-3.1-4.9
		c-0.1-0.4-0.2-0.8-0.3-1.2c-0.6-2.4-1.6-6.4,1.1-9.9c1.6-2,4.1-3.2,6.8-3.2c2.1,0,4.3,0.7,6.9,2.2c0.4,0.2,0.8,0.5,1.3,0.7
		c0.4,0.2,0.9,0.5,1.3,0.7c4-1.7,8.3-2.5,12.7-2.5c4.9,0,9.2,0.7,14.2,1.7c0.3,0,0.5-0.1,0.8-0.1c1.5-0.2,3.2-0.4,4.9-0.4
		c5.3,0,8.1,2.5,9.4,4.5c2.5,3.7,1.8,8.1,0.8,11.2c9.5,12.3,4.1,24.5,0.1,33.6c-0.3,0.8-0.7,1.6-1,2.4c-0.4,0.8-0.9,1.6-1.5,2.2
		c-0.2,4.3-1.5,6.9-3.1,8.6v0.1c0.4,0.3,0.8,0.7,1.1,1.1c0.9,1,2.4,1.5,6.1,1.9c26.2,2.7,33.6,21.5,37.3,39.6c0.6,3.1,2,6.3,3.4,9.6
		c2.4,5.8,5,12.1,4.9,19.6c7.3,0.9,10.5,5,11.8,7.6c3.2,6.2,0.8,13.3-2.5,17.8c-1.2,1.6-1.4,2.4-1.5,2.7c0.1,0.3,0.6,1,2.4,2.7
		c1.2,1,1.9,2.3,2.3,3.7c2.2,1.5,5.4,4.2,5.1,8.9c-0.2,4-3,6.5-5.2,8c17.3,20.1,29,43.5,40.4,66.3c4.7,9.4,9.6,19.2,14.7,28.5
		c12.1,21.8,16.6,44.5,13.3,67.5c-0.5,3.8,0.2,6,2.8,8.5c3.7,3.6,7.5,7.4,11.1,11c1.8,1.9,3.7,3.7,5.5,5.6c0.2,0.2,0.4,0.4,0.6,0.6
		c1.9,1.8,6.8,6.6,4.3,13.6c-1,3.1-4,8.2-12.5,8.2c-1,0-2.2,0-3.6-0.3c-4.2-0.5-10.1-1.5-15-4.6c-6.9-4.1-12.1-6.1-18.1-6.8
		c-4.7-0.5-8.6-3.1-10.7-7.2c-2.5-4.8-2.1-11,0.9-16.4c1.6-2.9,1.5-3.9,1.5-3.9s-0.4-1.2-4.6-3.6c-8.9-5.1-14.2-15-14.5-27
		c-0.4-21.8-6.8-41.3-18.9-58c-2.6-3.5-6.6-6.1-10.8-8.8c-1.4-0.9-2.8-1.8-4.2-2.8c-0.1,3.8-0.3,7.6-0.5,11.4
		c-0.7,12.6-1.5,24.5,3.3,35.7c2.8,6.5,2.8,11.9,0.1,15.9c-1.3,2-4.4,5.2-10.8,5.2c-1.7,0-3.3-0.2-5-0.6c0,0.1,0,0.2,0,0.3
		c0,0.5-0.1,1.1-0.1,1.5c5,9.9,9.1,22.8-1.5,37.1c-1.8,2.5-1.7,6.4,0.5,13.4c2,6.1,1.4,12-1.6,16.2c-2.7,3.8-7.1,5.8-12.4,5.8
		c-0.7,0-1.7,0-2.9-0.2h-0.5c-1,0-2,0.7-4.1,2.4c-2.5,2-6,4.8-11,5.6c-0.1,0-0.3,0-0.4,0c-0.6,0.1-1.2,0.2-1.9,0.3
		C168.2,456.1,166.6,456.4,164.7,456.4z M183.9,302.8c-1.2,2.3-2,4.9-2.3,7.5c-0.6,4.5,0.3,8.5,2.4,11c0.1,0.1,0.1,0.2,0.2,0.2
		c0.5,0.7,1,1.4,1.4,2.1c0.1-0.8,0.2-1.7,0.3-2.5C185.3,314.7,184.6,308.7,183.9,302.8z"/>
	<path d="M72.9,20.9c0,0,0.2,0,0.4,0c5.2,0,1.6,7.1,4.4,8.5c0.2,0,0.6,0,0.9,0c3.8,0,5.6-5.8,8.1-5.8c0.6,0,1.3,0.4,2,1.3
		c4.4,5.6-3.1,8.7-6.9,11.4c-4,2.9-4.7,5.2-2.9,9.8c5.4,15.8,9.8,32.1,14.9,47.9c0.9,2.9,3.3,5.8,5.8,8.1
		c5.6,4.9,12.5,8.7,13.3,17.6c0.2,2.7,4.2,7.3,6.7,7.3c0.4,0,0.9-0.2,1.3-0.6c3.1-4.2,12.7-6.7,8.5-14.5c-2.9-5.4-2.3-10.7-3.3-16
		c-0.2-10.2-2.3-20.3,1.8-30.3c1.1-3.1,0.4-5.2-2.9-5.2c-0.4,0-0.6,0-1.1,0c-0.4-2.5-1.8-5.6,0.2-5.6c0.6,0,1.8,0.4,3.3,1.3
		c2,1.1,4,2.5,6.2,2.5c0.6,0,1.3-0.2,2-0.4c3.5-1.6,7.1-2.3,10.5-2.3c4.7,0,9.1,0.9,13.9,1.8c2-0.2,4.2-0.6,6-0.6
		c3.1,0,5.2,1.3,2.3,8.3c-0.2,0.6,0.2,2.3,0.9,3.1c9.1,10.2,3.5,20.1-0.6,29.9c-4,0,0,8.9-4.4,8.9c-0.9,0-2.3-0.4-4.2-1.3
		c-0.2,0-0.4-0.2-0.4-0.2c-1.3,0-1.3,4,0.4,4.4c4.4,1.3,3.1,6.4,6.4,8.1c2.9,3.3,6.9,4,11,4.4c19.7,2,26.8,14.3,30.7,33.6
		c2.3,10.7,10,19.9,7.6,31.7c-0.4,2.5,2,3.1,4.7,3.3c11.2,0,10.2,8.5,6.4,13.6c-5.2,7.1-2.9,11,2,15.4c-2.9,3.8,11,4.9,1.6,9.6
		c-2-0.9-4-1.8-6-2.7c0-0.6-0.2-1.1-0.4-1.8c-0.9-2.7-2.7-5.2-4.9-5.2c-0.6,0-1.3,0.2-2,0.6c-3.3,2.5,0.4,4.7,2.5,6.4
		c0.9,1.3,1.8,2.9,2.7,4.2c29.2,28.8,43,67.4,62.4,102.3c10.7,19.3,15.6,40.6,12.5,62.8c-0.9,6.2,0.6,10.7,4.9,14.9
		c5.6,5.4,11,11,16.5,16.5c1.8,1.8,4.2,3.5,3.1,6.4c-0.9,2.7-3.1,3.1-5.4,3.1c-0.9,0-1.6,0-2.3-0.2c-4.2-0.4-8.9-1.3-12.5-3.5
		c-6.7-4-13.1-6.9-21.2-7.8c-6-0.6-7.1-7.3-4.2-12.5c4.7-8.3,2.7-12.7-5.8-17.6c-6.9-4-10.5-11.6-10.7-20.7
		c-0.4-22.8-6.9-43.7-20.3-62.2c-6.4-8.9-17.8-11.8-24.9-20.3c-0.6-0.6-1.1-1.1-1.6-1.1c-1.6,0-2.5,3.1-2.3,4.9
		c1.3,19.9-4.7,39.9,3.5,59.3c2.9,6.9,1.6,10.7-3.8,10.7c-1.6,0-3.3-0.2-5.6-1.1c-1.6-0.4-2.7-0.6-3.5-0.6c-2.5,0-3.1,1.6-3.1,5.4
		c0,2.7-0.9,5.6,0,7.6c5.4,10.2,7.3,19.7-0.4,30.1c-4.2,5.6-2.9,12.9-0.6,20.1c2,6.2,0.4,12.2-6.9,12.2c-0.6,0-1.3,0-2-0.2
		c-0.4,0-0.9,0-1.3,0c-6.9,0-9.8,7.1-16.2,8.1c-2.3,0.2-4,0.9-6,0.9c-1.1,0-2.3-0.2-3.8-0.6c-9.1-2.7-8.9-6-2.7-11.8
		c3.8-3.5,6.7-8.1,11-11c9.8-6.9,5.6-14.1,1.6-21.6c-17.6-33-32.3-67-35.2-105c-1.1-14.7,7.1-28,6.2-42.5c-0.2-2.7,0.9-5.6,0-7.6
		c-5.2-10.7-3.5-19.1,7.3-25.1c3.1-1.8,1.8-4,0.6-6.7c-2.5-6.2-5.8-12.2-11-16.5c-8.1-6.7-14.7-14.3-21.2-22.6
		c-13.9-16-14.3-22.2,1.8-38.6c-14.5-8.1-16.8-25.4-29-35.7c-5.4-4.4-9.6-9.3-16.2-12C61,86,50,76.4,42.8,64
		c-5.2-8.9-15.6-10.7-21.2-18.5c0.6-1.6,1.3-2.9,2-4.4c2,2.7,3.5,4.4,4.9,4.4s2.7-1.6,4.2-5.4c4-9.8,10.2-14.5,17.8-14.5
		c4,0,8.5,1.3,13.3,4c1.3,0.6,2.7,1.8,3.8,1.8c0.9,0,1.6-0.6,2-2.5C70.6,26,67.9,21.3,72.9,20.9 M73.5,80.6c2.7,0,3.8-2,3.1-4.4
		c-0.4-1.8-1.6-3.1-3.8-3.3c-2,0.4-2.5,2.3-2.5,4C70.4,79.1,71.5,80.6,73.5,80.6 M187.2,339.8c0.4,0,0.9,0,1.6-0.2
		c4.9-1.8,3.5-12.5,4.7-18.3c-1.1-10.5-2.3-20.1-3.3-29.7c-0.2-2-1.1-2.9-2.3-2.9c-0.6,0-1.6,0.4-2.5,0.9
		c-11.2,7.6-15.6,26.7-7.1,36.5C181.8,330.5,182.6,339.8,187.2,339.8 M72.9,5.9c-0.4,0-0.9,0-1.3,0.1c-4.9,0.4-9.2,2.5-12.2,5.8
		c-3-0.7-5.9-1.1-8.8-1.1c-11.2,0-20.8,5.5-27.4,15.5c-0.3,0-0.7,0-1,0.1c-5.2,0.5-9.7,3.6-12,8.2c-0.8,1.6-1.7,3.4-2.6,5.5
		c-1.9,4.8-1.2,10.2,1.8,14.4c4.3,5.9,9.6,9.3,13.9,12.1c3.4,2.2,5.5,3.6,6.4,5.1c8.8,15.3,22.2,27,38.7,33.9c0.1,0,0.1,0.1,0.2,0.1
		c2.5,1,4.8,3.1,7.7,5.7c1.4,1.3,2.8,2.6,4.5,3.9c3.4,2.9,6,7.3,9,12.5c2.4,4.1,5.1,8.8,8.7,13.2c-3.7,5.5-6,11.1-6.2,17.5
		c-0.4,11.7,6.8,21.2,13.7,29.2c5.6,7.2,13.3,16.4,23.2,24.6c1.4,1.2,2.7,2.8,3.9,4.9c-9.4,9.1-11.7,21.7-6.2,35.4
		c-0.1,1.4-0.3,3.1-0.1,5.1c0.3,4.8-1.1,10.1-2.7,16.2c-2,7.8-4.3,16.6-3.5,26.5c0,0,0,0,0,0.1c3.3,42.9,20.5,80.1,36.9,110.8
		l0.3,0.6c0.4,0.8,0.9,1.7,1.4,2.6c-3.5,2.6-6.1,5.6-8.3,8.1c-1.1,1.2-2.1,2.4-3,3.2c-2.9,2.7-11.3,10.6-8.7,21.7
		s13.8,14.4,17.4,15.5h0.1c2.9,0.8,5.4,1.2,7.9,1.2c2.6,0,4.8-0.4,6.2-0.7c0.5-0.1,1-0.2,1.2-0.2c0.3,0,0.5-0.1,0.8-0.1
		c7-1,11.7-4.8,14.6-7.1c0.2-0.2,0.5-0.4,0.8-0.6c0.8,0.1,1.5,0.1,1.9,0.1c7.7,0,14.3-3.2,18.5-8.9c4.4-6.1,5.4-14.5,2.7-22.9
		c-1.4-4.4-1.4-6.3-1.4-6.9c9.9-13.6,8.7-26.6,5.8-35.6c4.9-1.2,9-3.9,11.6-8c2.9-4.3,5.3-11.8,0.5-23c-3.9-9.2-3.5-19.1-2.9-30.5
		c0.9,0.7,1.6,1.5,2.1,2.2c11.2,15.4,17.1,33.5,17.5,53.7c0,0,0,0,0,0.1c0.3,14.3,6.6,26.2,17.4,32.8c-3.1,7-3.1,15,0.1,21.3
		c3.3,6.3,9.3,10.4,16.5,11.2c4.9,0.6,9.1,2.2,15.1,5.7c6,3.7,12.8,5,17.7,5.6c2,0.4,3.7,0.4,4.8,0.4c13.7,0,18.3-9.6,19.5-13.1
		c1.9-5.2,1.4-10.7-1.3-15.5c-1.6-2.9-3.7-4.9-4.9-6.1c-0.2-0.1-0.3-0.3-0.5-0.4c-1.8-1.8-3.7-3.7-5.5-5.5
		c-3.6-3.7-7.4-7.5-11.2-11.2c-0.4-0.4-0.5-0.6-0.6-0.7c0-0.2,0-0.6,0.1-1.4c3.5-24.7-1.3-49-14.2-72.2c-5.1-9.1-9.9-18.8-14.6-28.2
		c-10.6-21.2-21.5-43.1-37-62.5c1.8-2.8,2.5-5.6,2.6-8c0.3-5-1.7-9.8-5.6-13.3c-0.3-0.2-0.5-0.5-0.8-0.7c-0.5-0.9-1-1.8-1.7-2.7
		c4.3-7.5,4.9-16,1.4-22.9c-1.3-2.5-4.6-7.4-11.4-10.1c-0.9-6.5-3.2-12-5-16.5c-1.2-3-2.4-5.9-2.9-8.3c-2.8-13.4-6.6-22.6-12.6-29.8
		c-7-8.5-16.8-13.7-29.1-15.4c0.1-0.6,0.2-1.2,0.3-1.8c0.4-0.6,0.7-1.3,1-2c0.3-0.8,0.7-1.5,1-2.3c2.3-5.2,4.9-11.2,5.6-18.1
		c0.7-7.2-0.8-13.9-4.6-20c0.1-0.5,0.1-0.9,0.2-1.4c0.7-5.9-1.2-10.1-2.8-12.5c-2-2.9-6.6-7.9-15.7-7.9c-2,0-3.9,0.2-5.5,0.5
		c-4.2-0.8-9-1.6-14.4-1.6c-4.1,0-8.2,0.6-12,1.8C130.3,41,127,40,123.8,40c-5,0-9.6,2.2-12.7,6.1c-5,6.4-3.2,13.4-2.5,16.3
		c0.1,0.3,0.2,0.6,0.2,0.8c0.4,2.1,1.1,4,2.2,5.6c-1.5,7.6-1,14.6-0.6,21.1c0,0.8,0.1,1.5,0.1,2.2c-0.4-0.4-0.8-0.7-1.2-1
		c-0.9-0.8-1.4-1.5-1.6-1.8c-2.2-6.8-4.4-14-6.4-20.9C99.1,61,96.8,53.5,94.4,46c3.9-2.8,8.9-7.2,10.1-14.5c0.9-5.5-0.6-11-4.3-15.7
		c-0.2-0.2-0.3-0.4-0.5-0.6c-4.6-5.3-9.8-6.4-13.3-6.4c-1.1,0-2.2,0.1-3.2,0.3c-2.9-1.9-6.4-3-10.1-3L72.9,5.9L72.9,5.9L72.9,5.9z"
		/>
</g>
</svg>
