<?xml version="1.0" encoding="utf-8"?>
<!-- Generator: Adobe Illustrator 24.1.0, SVG Export Plug-In . SVG Version: 6.00 Build 0)  -->
<svg version="1.1" id="Livello_1" xmlns="http://www.w3.org/2000/svg" xmlns:xlink="http://www.w3.org/1999/xlink" x="0px" y="0px"
	 viewBox="0 0 297.6 220.7" style="enable-background:new 0 0 297.6 220.7;" width="50" height="50" xml:space="preserve">
<style type="text/css">

		.Stile_x0020_grafica{fill:#FEFEFE;stroke:#000000;stroke-width:15;stroke-linecap:round;stroke-linejoin:round;stroke-miterlimit:10;}
	.st0{fill:#FEFEFE;}
</style>
<g>
	<path class="st0" d="M237.7,80.1c1,0.4,2.1,0.5,3.1,0.5C239.8,80.4,238.7,80.3,237.7,80.1z"/>
	<g>
		<path class="st0" d="M163.5,210.6c-1.3,0-2.7,0-3.9-0.1c-12.2-0.5-26.1-1.2-38.2-8.7c-3.5-2.2-6.8-2.6-11.9-3
			c-8-0.6-15.3-3.8-21.8-9.3c-1.8-1.5-4.2-2.8-6.8-4.1c-1.2-0.6-2.5-1.3-3.8-2.1c-6.6,6.5-14.5,10.1-22.7,10.1
			c-10.1,0-19.8-5.3-27.2-15c-5.1-6.6-5.2-13.5-5.2-19c0-1.8,0-3.5-0.2-5c-0.1-0.7-0.2-1.2-0.2-1.4c-5.1-4.1-7.9-9.4-9.8-13.6
			c-2.1-4.6-2.1-9.8,0-14.1c2.1-4.3,5.9-7.4,10.7-8.7c1.1-0.3,2.2-0.7,3.4-1.1c2-0.6,4.1-1.3,6.4-1.8c-0.1-2.7,0.2-5.2,0.7-7.6
			c0.6-3.2,0.8-5.2,0.1-6.9c-2.4-6.4-1.6-13.2,2.4-19.5c1.8-2.8,2.2-4.7,1.7-7.6c-2.8-16.2,11.7-35.2,29.2-38.3
			c5.1-0.9,6.6-1.9,8.7-6C81,16.5,92.3,9.7,105.4,9.7c6.2,0,12.5,1.5,18.4,4.4c3.5,1.7,6.9,2.6,10.1,2.6c1.5,0,2.9-0.2,4.3-0.6
			c2.2-0.6,4.8-1.3,7.9-1.3c4,0,7.6,1.3,10.9,3.8c0.1,0.1,0.6,0.4,2.2,0.4c1,0,2.2-0.1,3.5-0.2c0.2,0,0.3,0,0.5,0
			c2.3-3.9,6.1-6.2,10.7-6.2c1.7,0,3.4,0.3,5.2,0.9c4.4,1.5,8.1,3.6,11.2,6.3c6.8,6,13.8,12.2,19.5,20.7c1.8,2.6,5.6,4.5,9.6,6.5
			c2.1,1,4.4,2.1,6.5,3.4c12.2,7.3,20.6,14.4,27.1,22.8c1.2,1.6,1.8,3.7,1.5,5.7c-0.8,5.2-4.7,8.5-10,8.5c-0.2,0-0.3,0-0.5,0
			c-0.2,0-0.5,0-0.7,0c-1,0-2,0.1-3.1,0.1c-0.7,0-1.4,0.1-2.1,0.1c-0.1,0-0.2,0-0.3,0c-0.9,0-1.8-0.2-2.6-0.5
			c-0.6-0.2-1.2-0.5-1.8-0.7c-0.5-0.2-1.2-0.5-1.5-0.6c-0.8-0.1-1.6-0.2-2.4-0.2c-0.4,0-0.7,0-1.1,0c0,1.3-0.2,2.8-0.8,4.3
			c0,0.2,0,0.4,0,0.5c0,0.6,0,1.2-0.1,1.9c6.2,0.3,17.8,1.2,25.3,11.2c1.6,2.1,3.7,3.6,6.4,4.5c5.6,1.8,10.2,5.2,14,10.1
			c4.7,6.2,9.6,12.9,13.4,20.8l0.1,0.2c2.5,5.1,2.2,9.4-0.9,12.6c-0.8,0.8-1.6,2.1-2.5,3.5c-2.7,4.1-6.8,10.3-15.5,11.1
			c-0.1,0.4-0.1,0.8-0.2,1.2c-1.1,8.3-3.9,20.1-15.4,27.1c-8.5,5.2-17.8,9.4-27.5,12.4c-6.4,2-12.7,2.2-17.6,2.2c0,0,0,0,0,0
			c-2.5,0-4.9-0.1-7.3-0.1c-1.3,0-2.5-0.1-3.8-0.1c-0.6,0-1.1,0-1.7,0c-4.8,0-9.7,0.4-14.8,0.8C174.3,210.2,168.9,210.6,163.5,210.6
			z"/>
		<path d="M105.4,17.2c5,0,10.2,1.2,15.1,3.6c4,2,8.6,3.4,13.4,3.4c2.1,0,4.2-0.3,6.3-0.8c2-0.5,3.9-1.1,5.9-1.1
			c2.1,0,4.1,0.6,6.3,2.2c2,1.5,4.3,1.9,6.8,1.9c2.4,0,4.9-0.4,7.2-0.4c1.5,0,2.1-1.3,2.7-2.6c1-2.4,2.7-3.4,4.7-3.4
			c0.9,0,1.8,0.2,2.8,0.5c3.1,1.1,6,2.5,8.6,4.8c6.7,5.9,13.1,11.7,18.2,19.3c4.1,6.1,12.2,8.3,18.5,12.1c9.5,5.7,18.2,12.2,25.1,21
			c-0.2,1.5-1.1,2.1-2.5,2.1c-0.1,0-0.2,0-0.2,0c-0.3,0-0.7,0-1,0c-1.8,0-3.6,0.2-5.5,0.2c-1.5-0.6-3-1.4-4.6-1.6
			c-1.2-0.2-2.4-0.3-3.6-0.3c-2.2,0-4.3,0.3-6.3,0.9c-4.4,1.3-1.3,5.6-2.6,8.2c-0.7,1.4-0.3,3.3-0.6,4.9c-1.3,8-1,7.4,6.4,7.7
			c7.5,0.3,15.3,1.4,20.5,8.2c2.6,3.4,6,5.7,10,7.1c4.2,1.4,7.6,4,10.3,7.5c4.7,6.2,9.2,12.5,12.6,19.5c0.7,1.3,1.6,3.2,0.5,4.2
			c-4.3,4.4-6,12-13.9,12.4c-5,0.3-5.7,2.3-6.4,7.6c-1.1,8-3.6,16.7-11.8,21.8c-8.1,5-16.8,8.8-25.8,11.6c-5,1.5-10.1,1.9-15.4,1.9
			c-3.6,0-7.3-0.2-10.9-0.3c-0.6,0-1.2,0-1.9,0c-10.3,0-20.6,1.7-30.8,1.7c-1.2,0-2.4,0-3.6-0.1c-11.8-0.5-24.2-1.1-34.6-7.6
			c-5.1-3.2-9.8-3.6-15.3-4.1c-6.5-0.5-12.2-3-17.5-7.5c-4.6-3.9-10.7-5.8-15.6-9.5c-0.3-0.2-0.6-0.3-0.9-0.3
			c-0.8,0-1.4,0.9-1.9,1.6c-5.8,7-12.8,10.4-19.7,10.4c-7.5,0-15.1-4.1-21.2-12.1c-4.9-6.5-3.1-13.6-4-20.4
			c-0.3-2.7-0.7-4.6-2.9-6.3c-3.6-2.9-5.9-6.8-7.7-10.9c-2.4-5.5,0.1-10.9,5.8-12.5c4.3-1.2,8.5-3.2,13-3.2c0.3,0,0.7,0,1,0
			c0.2,0,0.3,0,0.5,0c2.5,0,2.5-1.6,1.7-3.5c-1.3-3.2-0.9-6.4-0.3-9.8c0.6-3.5,1.1-7.2-0.2-10.8c-1.7-4.5-0.8-8.9,1.7-12.9
			c2.5-4,3.6-7.8,2.7-12.9c-2.1-12.1,9.6-27.2,23.1-29.7c6.8-1.2,10.6-3.3,14-10C86.7,21.8,95.7,17.2,105.4,17.2 M220.2,75.4
			c0.8,0,1.1-0.6,1.3-1.3c0-0.9-0.5-1.5-1.4-1.7c-0.1,0-0.2,0-0.2,0c-0.8,0-1.2,0.7-1.4,1.4c-0.3,1.1,0.6,1.4,1.4,1.5
			C220,75.4,220.1,75.4,220.2,75.4 M105.4,2.2L105.4,2.2c-15.9,0-29.7,8.3-36.9,22.2c-0.4,0.9-0.8,1.3-0.9,1.5
			c-0.3,0.1-1,0.3-2.5,0.6c-21.6,3.9-38.7,26.8-35.2,47c0.2,0.9,0.2,1-0.7,2.4c-5.1,8.2-6.3,17.4-3.2,25.9c0,0.5-0.1,1.5-0.4,3.1
			c-0.2,0.9-0.3,1.9-0.5,3.1c-0.5,0.2-1,0.3-1.5,0.5c-1.1,0.4-2.1,0.7-3,0.9c-6.9,1.9-12.6,6.5-15.6,12.7c-3,6.3-3,13.7-0.1,20.3
			c1.8,4,4.6,9.5,9.5,14.3c0,0.9,0.1,1.8,0.1,2.8c0.1,5.9,0.2,14.9,6.8,23.5c8.9,11.6,20.6,18,33.1,18c8.4,0,16.6-3,23.7-8.5
			c1.9,1,3.7,2,4.7,2.8c7.7,6.6,16.4,10.3,26,11.1c5,0.4,6.7,0.7,8.6,1.8c13.7,8.6,29.3,9.3,41.8,9.8c1.4,0.1,2.8,0.1,4.3,0.1
			c5.7,0,11.2-0.5,16.6-0.9c5-0.4,9.7-0.8,14.2-0.8c0.5,0,1,0,1.5,0c1.2,0,2.5,0.1,3.7,0.1c2.4,0.1,4.9,0.2,7.5,0.2
			c5.3,0,12.4-0.3,19.8-2.5c10.4-3.2,20.2-7.6,29.2-13.1c13-8,16.9-21,18.2-28.5c8.4-2.9,12.8-9.6,15.2-13.2c0.5-0.8,1.3-2,1.6-2.3
			c4-4.1,5.6-9.8,4.3-15.6c-0.5-2.4-1.5-4.3-2-5.5l-0.1-0.2c-4.1-8.4-9.2-15.6-14.2-22c-4.6-6.1-10.6-10.3-17.6-12.7
			c-1.6-0.5-2.2-1.2-2.7-1.9c-1.9-2.5-3.9-4.5-6.1-6.2c4.8-2.5,8.2-7.1,9.1-13c0.6-4-0.5-8.1-3-11.3c-7.1-9.2-16.1-16.8-29.2-24.6
			c-2.5-1.5-4.9-2.7-7.1-3.7c-2.3-1.1-6-2.9-6.7-3.9c-6.2-9.3-13.9-16.1-20.7-22.2c-3.9-3.4-8.4-6-13.7-7.8
			c-2.6-0.9-5.1-1.3-7.6-1.3c-5.7,0-10.7,2.2-14.4,6.1c-4.1-2.6-8.6-3.9-13.4-3.9c-4,0-7.5,0.9-9.8,1.6c-0.7,0.2-1.5,0.3-2.3,0.3
			c-2,0-4.4-0.6-6.8-1.8C120.2,4,112.7,2.2,105.4,2.2L105.4,2.2z"/>
	</g>
</g>
</svg>
