<?xml version="1.0" encoding="utf-8"?>
<!-- Generator: Adobe Illustrator 24.1.0, SVG Export Plug-In . SVG Version: 6.00 Build 0)  -->
<svg version="1.1" id="Livello_1" xmlns="http://www.w3.org/2000/svg" xmlns:xlink="http://www.w3.org/1999/xlink" x="0px" y="0px"
	 viewBox="0 0 226.6 299.7" style="enable-background:new 0 0 226.6 299.7;" width="50" height="50" xml:space="preserve">
<style type="text/css">

		.Stile_x0020_grafica{fill:#FEFEFE;stroke:#000000;stroke-width:15;stroke-linecap:round;stroke-linejoin:round;stroke-miterlimit:10;}
	.st0{fill:#FEFEFE;}
</style>
<g>
	<path class="st0" d="M100.6,55c0.1,0.1,0.2,0.2,0.4,0.3C100.9,55.2,100.8,55.1,100.6,55z"/>
	<g>
		<path class="st0" d="M160.3,291.2c-3.4,0-6.6-1.7-9.5-4.9c-0.1,0-2.2,0-2.2,0c-1,0-1.9,0-2.9,0c-5.3,0-10.9-0.4-16.6-3
			c0,0-0.1,0-0.1,0c-0.4,0-1,0.1-1.6,0.1c-0.7,0.1-1.6,0.1-2.4,0.2c-0.3,0-0.6,0-0.9,0c-4.6,0-8.8-0.8-12.7-2.3
			c-0.4,1.4-1.1,2.7-2.2,4c-3.5,4-8.7,4.2-12.6,4.3c-0.7,0-1.3,0.1-2,0.1c-1.4,0.1-2.8,0.1-4.3,0.1c-3.2,0-5.9-0.3-8.5-1
			c-2.3-0.6-4.2-2.2-5.1-4.4c-0.2-0.4-0.3-0.8-0.4-1.2c-2,0.4-4.4,0.9-7,0.9c-3.5,0-6.8-0.9-9.9-2.7c-1.7-1-2.8-2.5-3.4-4.3
			c-0.3,0-0.5,0-0.8,0c-1.9,0-3.8-0.3-5.6-1c-6.9-2.6-9.5-6.9-10.3-11c-1.4,0.4-2.8,0.6-4.3,0.6c-1.2,0-2.5-0.1-3.9-0.5
			c-1.2,1.6-3,2.9-5.7,3.2c-0.4,0.1-0.8,0.1-1.2,0.1c-4.3,0-8.1-3.1-8.9-7.4c-1.1-5.5-2.6-13,2.1-20.1c3.1-4.7,6.8-5.7,9.4-5.7
			c2.6,0,5.2,1,7.7,3c1,0.8,1.9,1.2,2.7,1.2c0.9,0,2-0.6,3-1.6c3.1-3.1,3.9-7.1,4.9-13.2l0.1-0.5c-0.2,0-0.3-0.1-0.5-0.1
			c-1.8-0.5-3.3-1.6-4.3-3.1c-1.4-2.2-1.9-4.7-1.4-7c0.5-2,1.6-3.4,2.6-4.4c0.3-0.7,0.7-1.4,1.3-1.9c0-0.5,0-1,0.1-1.5
			c0.9-5.4-5.1-17.6-10-20.4c-0.9-0.5-1.9-1-3-1.6c-2.3-1.2-4.9-2.5-7.3-4.3c-8.6-6.4-11.2-15-7.4-24.6c-2.3-1.9-4.2-4.2-4.9-7.2
			c-1.2-4.9,1.1-9.3,3.8-13.3c0.8-1.2,1.5-2.4,2.3-3.6c1.1-1.8,2.3-3.7,3.6-5.6c-7.7-9.3-10.2-18.6-7.8-28.5
			c0.2-0.9,0.6-1.7,1.1-2.4l4-6c0.3-0.4,0.6-0.8,1-1.2c1.6-1.6,3.8-3.7,6.7-5c0-0.1-0.1-0.2-0.1-0.2c-1-2.1-0.9-4.5,0.1-6.6
			c0.4-0.8,0.9-1.5,1.5-2c0-3.2,1.1-5.5,2.4-7c0.1-1.2,0.5-2.2,0.9-3.1c-0.2-2.5,0.6-4.4,1.4-5.6c1.6-2.4,4-3.2,5.7-3.5
			c0-2,0.6-3.9,1.7-5.4c1.5-2.1,3.9-3.3,6.5-3.3c0-0.1,0.1-0.2,0.1-0.3c-1.2-1.4-2-3.2-2.3-5.1c-0.6-3.2,0-7.6,2.3-10.2
			c0-0.2,0-0.4,0-0.6c0-1.1,0-2.5,0.4-4c1.9-9,9.2-12.2,14-14.3l0.1,0c2.2-1,4.4-1.5,6.6-1.5c4.3,0,8.4,1.8,12,5.4
			c0.8,0.8,1.5,1.6,2,2.2c0.2,0.3,0.5,0.7,0.7,0.9c1,0.5,1.8,1.2,2.5,2c0.1,0.1,0.1,0.2,0.2,0.3c3,2.2,5.3,4,7.1,5.7
			c4.2-5.3,10-8.1,16.7-8.1c4.5,0,9.4,1.3,13.9,3.8c4.5,2.5,6.1,6.5,6.9,8.4c0.9,2.2,1.2,4.4,0.9,6.4c3.4-1.9,6.9-2.9,10.5-2.9
			c4.1,0,8.1,1.3,12,3.7c0.3,0.2,0.7,0.5,1,0.7c1.9-3.3,4.4-6.6,8.2-9.4c1.9-1.4,4.8-3.2,8.5-3.2c4.3,0,8,2.4,10.8,7.2
			c0.8,1.3,1.4,2.6,1.9,3.7c0.1,0.3,0.3,0.5,0.4,0.8c4.1,7.3,1.6,11.6-1.1,13.9c-2.3,1.9-4.5,2.3-6.1,2.3c-0.2,0-0.4,0-0.5,0
			c0.4,0.6,0.8,1.3,1.1,1.9c0.2,0.3,0.4,0.7,0.6,1c1.6,1.1,4.8,3.5,4.8,8c0,2.1-0.7,4-2.1,5.7c0.7,1.5,1,3,0.9,4.6
			c-0.2,3.4-2,5.6-3.5,7c7.6,0.4,14.6,5.2,16.9,11.8c1,2.8,0.8,6-1.2,8.6c1.9,2.4,2.9,5.4,3.8,7.9c0.3,1,0.7,1.9,1,2.7
			c0.6,1.2,1.9,5.4-2.3,9.1c0,0.4,0.1,0.8,0.1,1.2c0,0.4,0.1,0.8,0.1,1.2c0.1,2-0.6,4-2,5.5c-1.4,1.5-3.3,2.4-5.4,2.4
			c0,0-0.1,0-0.1,0c-0.7,0-1.3-0.1-1.9-0.2c-2.4,1.2-4.7,1.3-5.9,1.4c-0.1,0-0.1,0-0.2,0c-1.2,0.5-2.5,0.8-3.7,0.8
			c-0.3,0-0.6,0-0.9,0c0.6,1.5,1,3.2,1.2,5.2c0.1,1.1,0.6,2.4,1,3.8c0.4,1.1,0.7,2.2,1.1,3.5c1.9,7.2-1.9,10.6-4.3,12
			c-1.4,0.8-3,1.2-4.5,1.2c-2.7,0-4.9-1.1-6.8-3.4c-0.7-0.4-1.4-0.8-2.1-1.2c-0.9,1.7-2.5,3.4-5.3,4.9c-0.9,0.5-1.6,1.2-2.7,3.7
			c-2.4,5.4-7.4,9.4-13.4,10.6c-1.4,3.9-3.3,6.7-5.9,8.5c-1.1,0.7-1.3,1.7-0.8,6.4c0.6,5.5-0.5,10-3.5,13.6c1,1.2,1.7,2.7,1.8,4.4
			c0.1,0,0.1,0,0.2-0.1c1.9-0.6,3.7-0.9,5.4-0.9c3.8,0,7.3,1.4,9.7,4.1c1.9,2,4,5.7,3.5,11.8c0,0.4-0.1,0.8-0.1,1.2
			c0.9-0.7,1.7-1.4,2.6-2.2c1.5-1.3,3.1-2.6,4.6-3.9c0.3-0.2,0.6-0.5,0.8-0.8c2-1.8,5.3-4.8,10.3-4.8c1.2,0,2.4,0.2,3.6,0.6
			c4.5,1.4,6.5,4.5,7.5,7.2c1.2-0.8,2.5-1.6,3.7-2.4c0.1-0.2,0.1-0.5,0.2-0.9c1.4-7.7,1.9-15.7,1.4-23.9c-0.2-0.3-0.5-0.8-0.8-1.2
			c0,0-0.1-0.1-0.1-0.1c-6.1-6-3.1-11.6-1.5-13.8c1.2-1.6,3-2.7,5-3c0.3,0,0.7-0.1,1-0.1c1.1,0,2.2,0.2,3.1,0.7
			c0.5-0.3,1.1-0.7,1.8-0.9c1.4-0.6,2.8-0.9,4.2-0.9c3.3,0,7.5,1.9,9.3,7.2c2.1,6.2,2,12.7-0.2,18.7c-2,5.3-2.3,11.4-1.1,18.6
			c0.7,4,0.1,7.2-1,9.7c0.3,0.3,0.6,0.6,0.8,1c1.6,2.1,2,4.8,1.1,7.2c-0.9,2.4-3,4.2-5.6,4.7c-2.2,0.4-4.2,0.7-6.3,0.9
			c-4.5,0.5-7.5,0.9-9.9,2.6c2,5.3,4.5,10.2,7.7,14.7c2-1.5,4.6-3,8-3c3.3,0,6.4,1.4,9.1,4.2c2.5,2.6,5.6,7.4,3.1,14.2
			c0.4,0.2,0.7,0.5,1.1,0.7c2.4,1.8,3.6,4.8,2.9,7.7c-0.7,2.9-3,5.2-6,5.7c-0.5,0.1-1.1,0.3-1.8,0.5c-1.7,0.5-3.9,1.2-6.4,1.2
			c0,0,0,0,0,0c-1.5,0-2.9-0.2-4.3-0.6c-0.5-0.1-0.9-0.3-1.4-0.6c-0.3-0.2-0.8-0.3-2-0.3c-0.8,0-1.7,0.1-2.6,0.1
			c-1.2,0.1-2.5,0.2-3.8,0.2c-0.6,0-1.1,0-1.7-0.1c-1.7-0.1-3.4-0.8-4.6-2c-2-1.9-4.5-3-8.2-3.7c-1.3,1.8-2.8,3-4,3.9
			c-0.4,0.3-0.9,0.7-1.1,1C166,290,163.2,291.2,160.3,291.2z M110.4,218.7c0.1,0.2,0.3,0.5,0.5,0.9c0.6,0.9,1,1.7,1.4,2.4
			c0,0,0,0.1,0.1,0.1c0,0,0,0,0,0c1-1.6,2.1-3,3.2-4.4c-1.5-0.1-2.9-0.5-4.1-0.9C111.2,217.5,110.8,218.1,110.4,218.7z M111,185.6
			L111,185.6z M118.7,46c0.2,0.6,0.4,1.2,0.5,1.8c0,0.1,0.1,0.2,0.1,0.2c0.3-0.7,0.6-1.4,0.9-2.1c-0.5,0.1-0.9,0.1-1.4,0.1
			C118.9,46,118.8,46,118.7,46z"/>
		<path d="M66.5,17.3c2.5,0,4.7,1.3,6.8,3.3c1.5,1.5,2.5,3.5,4.6,4.5c0.3,0.4,0.5,0.8,0.9,1.1c10.6,7.5,10.6,7.7,7.8,20.3
			c-0.5,2.3,0.2,3.1,1.5,3.1c0.7,0,1.7-0.3,2.6-0.7c1,1.1,2.1,2.1,3.1,3.2c0.4,0,0.8,0.1,1.1,0.1c4.9,0,1.1-4,1.7-6.1
			c-1.8-1.2,0.5-4-1.8-5c-0.8-3.6,0.7-6.8,2-10c3.1-3.9,7-5.3,10.9-5.3c3.7,0,7.4,1.3,10.3,2.8c2,1.1,2.8,2.8,3.5,4.6
			c0.8,2.1,0.7,4.2-1.6,5.1c-0.4,0.1-0.7,0.2-1,0.2c-1.5,0-1.3-2.1-1.8-3.2c-1.1-2.4-3.7-3.9-6.5-3.9c-1.2,0-2.5,0.3-3.6,0.8
			c-3.5,1.7-5.1,4.1-3,8c1.2,2.2,1.9,4.5,2.8,6.8c0.2,1.4,0.5,2.7,1.7,2.7c0.4,0,0.9-0.1,1.5-0.5c0.6-0.1,1.2-0.2,1.9-0.2
			c1,6,7.7,7.1,10.1,12c3.2,2.2,1.7,6.3,3.8,9c0.7,0.8,1,1.9,2.1,1.9c0.1,0,0.2,0,0.4,0c1.2-0.2,1.3-1.4,1.7-2.3
			c0.8-1.7,0.5-3.3-0.8-4.6c-5.7-5.7-4.6-11.7-1.1-17.9c3.7-3.5,7.6-5.7,11.8-5.7c2.5,0,5.2,0.8,7.9,2.6c0.9,2.7,4.8,2.9,5.2,6.1
			l-0.1,0.1c-3.6,3,1.7,5,0.8,7.7c-1.6,0.8-3.2,2.5-1.9,3.8c2.7,2.8-0.7,3.5-1.2,5.2c-1,0.5-1.9,1.5-1.4,2.3
			c5.2,6.8-0.5,11.7-3.5,16.2c-2.8,4.2-4.8,6.1,1.8,7.1c0.1,0,0.2,0.3,0.3,0.4c1.4,0.7,2.9,1,4.3,1c2.6,0,4.8-1.1,5.5-3.2
			c2.3-7.7,4.6-15.5,2.1-23.7c-1.3-1.7-2.6-3.4-3.9-5c-0.4-5,0.3-9.9,1.1-14.9c1.9-4.6,4.3-8.9,8.4-12c1.6-1.2,2.9-1.8,4.1-1.8
			c1.6,0,2.9,1.2,4.3,3.5c0.6,1,1.1,2,1.5,3.1c0.9,1.9,2.9,4.4,1.3,5.8c-0.5,0.4-0.9,0.5-1.2,0.5c-1.4,0-2.4-2.2-3.6-3.2
			c-0.6-0.5-1.1-0.7-1.5-0.7c-1.2,0-1.6,1.9-2.5,2.5c-3.9,2.8-3.7,6.7-1.3,9.9c1.4,1.9,2.5,3.9,3.7,5.8c0.1,0.4,0.3,0.8,0.7,1.1
			c1.7,1.4,5.1,2.3,0.9,5.1c-1.4,0.9-1.6,3.9-0.5,5.1c3.1,3.2,0.1,4.3-1.5,6c-1.1,2.6-3.5,5.3,0,7.9c0.3,0.4,0.6,0.7,0.9,1.1
			c0.3,2-2.8,2.8-1.9,5.1c0,0,0,0,0,0c-2.8,0.6-2.1,2.6-1.5,4.3c0.4,1.2,1.7,2.1,1.4,3.6c-0.3-0.1-0.6-0.1-0.9-0.1
			c-3,0-3.5,2.8-3.9,4.9c-0.5,2.6,2.3,2.8,4,3.3c2.2,0.7,4.5,1,7.3,1.5c-2-3.6-3.8-6.5-5.5-9.5c0-2.4,0-4.7,0-7.1c0,0,0,0,0,0h0
			c1-1,2-2,3-3c1-0.3,2-0.5,3-0.5c4.5,0,9.4,2.8,10.8,6.8c0.5,1.5-0.4,2.1-1.5,2.6c0,0,0,0,0,0c-1.2-0.8-2.4-1.6-3.7-2.3
			c-0.7-0.4-1.4-1.2-2.2-1.2c-0.4,0-0.7,0.2-1.1,0.8c-0.7,1.2,0.4,2.5,1.3,3.4c0.6,0.6,1.3,0.8,2.1,0.8c0.4,0,0.7,0,1.1-0.1
			c-0.2,2.4-0.3,3.8,2.6,5.6c2.8,1.7,3.6,6.6,5.1,10.1c0.1,0.1-1,0.8-1.5,1.2c-2,2.3-1.5,5-1.3,7.7c0,0,0,0,0,0
			c-1.1,0-2.1-1.4-3-1.4c-0.3,0-0.6,0.2-0.8,0.6c-1.8,3-4.8,1.3-6.9,2.5c-0.3,0.2-0.7,0.3-0.9,0.3c-0.5,0-0.8-0.3-0.9-1
			c-0.5-3-2.6-4-5.1-4c-0.4,0-0.7,0-1.1,0c-4.7,0-9.5,0.2-14.3,0.4c-0.7,0-1.3,0.4-1.5,1.1c-0.7,2.5,3.9,8.9,6.8,8.9
			c0,0,0.1,0,0.1,0c0.4,0,0.7,0,1.1,0c5.3,0,7.1,3.2,7.8,8.3c0.4,2.8,1.6,5.4,2.3,8.2c0.3,1.3,0.7,2.7-0.8,3.6
			c-0.3,0.2-0.6,0.2-0.8,0.2c-0.9,0-1.3-1.2-2-1.7c-4.3-2.9-9.2-4.5-14.2-5.6c-0.3-0.1-0.7-0.1-1-0.1c-0.7,0-1.3,0.2-1.7,0.9
			c-0.8,1.5,0.6,2.1,1.5,2.6c3.2,1.9,2.3,3.7-0.3,5.1c-3.2,1.6-4.7,4.2-6.1,7.4c-1.5,3.3-4.5,5.7-8.4,6.3c-2.5,0.4-4.1,1.6-4.9,4.2
			c-0.6,2-1.7,4.3-3.3,5.5c-5,3.5-4.4,8.9-3.9,13.3c0.7,6-1.7,9-6.5,11.4c-1.1,0.5-3,0.4-2.9,2.2c0.1,1.7,1.8,1.6,3,2.1
			c1.5,0.6,2.9,1.2,4.7,2c-2.8,1.6-4.9,2.4-6.8,2.4c-2.1,0-3.9-1-5.9-3.1c-1-1-1.9-1.6-3-1.6c-0.4,0-0.8,0.1-1.3,0.2
			c-2.1,0.8-1.8,2.5-1.4,4.2c0.4,1.7,0.5,3.2-0.8,4.7c-2.7,3.1-1.4,6,0.5,9c1.7,2.7,2.6,6.3,6.4,6.3c0.5,0,1.2-0.1,1.8-0.2
			c2.4-0.6,4.2-0.9,5.7-3.2c3.6-5.6,8.1-10.1,14.7-12.1c1.2-0.4,2.3-0.5,3.2-0.5c3.9,0,6.1,2.8,5.7,7.8c-0.3,3.5-1.7,6.7-2.9,10
			c-0.6,1.6-2,3.5,0.5,4.7c1.2,0.6,2.4,1.3,3.6,1.3c0.8,0,1.7-0.3,2.6-1.2c5-4.6,10.3-8.9,15.5-13.3c1.9-1.6,3.7-3.8,6.3-3.8
			c0.5,0,0.9,0.1,1.5,0.2c3.6,1.1,2.8,4.9,3.7,7.5c0.5,1.4-0.1,3,1.3,4.3c4.3-2.7,8.7-5.4,13-8.2c2-1.3,2.6-3.3,3-5.5
			c1.6-8.5,2-17.1,1.5-25.7c0.4-2.1-1.1-3.3-2-4.8c-0.8-1.6-3.8-2.7-1.9-5.3h0c2.9,2.3,5.8,4.5,8.5,6.6c0.4-0.7,0.4-2.8-0.9-4.3
			c-1.4-1.5-1.7-2.4,0.3-3.2c0.4-0.2,0.8-0.3,1.2-0.3c1.1,0,1.8,0.9,2.2,2.1c1.6,4.6,1.5,9.3-0.1,13.7c-2.8,7.4-2.8,15.1-1.5,22.5
			c1,5.8-2.2,8.1-5.6,10.9c-2.2,2,0.1,1.8,1.1,2c0.3,0.1,0.6,0.1,0.9,0.1c0.8,0,1.7-0.2,2.6-0.2c0.9,0,1.7,0.2,2.4,1.1
			c-6.7,1.3-13.9,0.5-19.8,5.3c-2.6,2.1-3.6,3.8-2.4,7c2.8,7.7,6.6,14.8,11.6,21.2c0.9,1.2,1.8,1.7,2.6,1.7c0.8,0,1.6-0.5,2.6-1.3
			c2-1.6,4-3.9,6.3-3.9c1.1,0,2.4,0.5,3.8,1.9c3,3,2.4,6.6-1.7,11.5c-0.2,0.2-0.5,0.4-0.8,0.5c-1.9,1.3-3.3,2.5,0.4,3.1
			c0.3,0,0.6,0.1,0.9,0.1c1.2,0,2.4-0.3,3.5-0.3c1,0,1.9,0.2,2.8,0.8c-2.3,0.4-4.5,1.5-6.9,1.5c-0.7,0-1.4-0.1-2.1-0.3
			c-1.8-1-3.7-1.3-5.6-1.3c-2.2,0-4.3,0.3-6.5,0.3c-0.4,0-0.8,0-1.2,0c-4.2-3.9-9.2-5.4-14.8-5.9c-0.5-0.1-0.9-0.1-1.3-0.1
			c-1.2,0-2,0.4-2.5,1.9c-0.9,2.7-3.6,3.8-5.3,5.8c-0.7,0.8-1.5,1.1-2.2,1.1c-1.7,0-3.2-1.7-4.1-2.7c-1.7-2.1-3.4-2.3-5.6-2.3
			c-0.3,0-0.6,0-0.9,0c-1.3,0-2.6,0-3.9,0c-4.7,0-9.3-0.3-13.7-2.4c-0.9-0.4-2-0.6-3-0.6c-1.4,0-2.9,0.2-4.2,0.3c-0.2,0-0.5,0-0.7,0
			c-6,0-11.2-1.6-16.1-5.1c-0.6-0.5-1.3-1.3-2.1-1.3c-0.3,0-0.6,0.1-0.9,0.3c-1.1,0.8-1,2-0.8,3.2c0.9,7.6,0,8.7-7.8,8.9
			c-2,0.1-4,0.2-6,0.2c-2.2,0-4.4-0.2-6.7-0.7c1.6-2.8,4.2-2.2,6.2-2.6c2.5-0.4,5-0.5,7.4-0.9c2-0.4,3.3-1.2,2.7-3.8
			c-0.5-1.9-1.2-2.4-2.6-2.4c-0.4,0-0.8,0-1.3,0.1c-4.4,0.6-8.3,3-12.8,3c-0.1,0-0.2,0-0.2,0c0,0,0,0,0,0c0,0,0,0,0,0
			c-0.5-0.1-1-0.1-1.5-0.1c-1.5,0-2.9,0.4-4.4,0.6c-2.5,0.4-5.1,1.2-7.8,1.2c-1.9,0-3.9-0.4-6.1-1.7c0.2-0.1,0.5-0.1,0.7-0.2
			c4,0,7.4,0,10.7,0c1.8-0.3,3.7-0.7,4.5-2.5c0.5-1.2-0.8-1.8-1.7-2c-4.6-0.7-8.7-3.4-13.4-3.4c-0.2,0-0.4,0-0.7,0c0,0,0,0,0,0
			c0,0,0,0,0,0c-2.7,1.1-5.2,2.7-8.1,2.7c-0.9,0-1.9-0.2-3-0.6c-3.9-1.4-5.9-3.4-5.6-7.6c0.1-1.3,0.3-2.6,0.2-4
			c-0.1-2-0.4-3.2-1.7-3.2c-0.6,0-1.4,0.3-2.5,1c-2.5,1.6-5.2,2.9-7.7,2.9c-2.3,0-4.5-1.1-6.5-4.3c-0.3-0.5-0.9-1.1-1.6-1.1
			c-0.1,0-0.3,0-0.5,0.1c-1.1,0.3-0.8,1.3-0.9,2.1c-0.1,1.3,0,2.7,0,4c0,0.8,0,1.8-1.1,1.9c-0.1,0-0.1,0-0.2,0
			c-0.8,0-1.4-0.6-1.6-1.4c-1-4.9-2-9.9,1-14.5c0.9-1.4,1.9-2.3,3.2-2.3c0.8,0,1.8,0.4,2.9,1.3c2.5,2.1,5.1,2.9,7.4,2.9
			c3.3,0,6.2-1.6,8.4-3.8c5.4-5.4,6.1-12.2,7.3-18.9c0.5-3.1,0.6-6.3,0.8-9.4c1.6-1.6,1.4-3.4,0.6-6.1c-1.2,2.3-3.1,3.2-3.3,5.3
			c-0.9,1.3-1.6,2.9-3.3,2.9c-0.3,0-0.6,0-0.9-0.1c-1.6-2.4,3.1-1.9,1.9-4.1c1.9-1.3,2.4-3.1,2-5.2c1.5-8.4-6-23.8-13.7-28.2
			c-3.2-1.8-6.6-3.2-9.5-5.4c-6.7-5-7.7-10.8-3.8-18.2c1.5-1.2,2.9-2.5,0.2-3.9c-7.1-4-7.6-6.2-3.1-12.9c2.3-3.4,4.3-7.1,6.8-10.3
			c2.3-3,1.1-5-0.8-7.3c-5.5-6.5-8.9-13.7-6.8-22.5c1.3-2,2.7-4,4-6c2.2-2.1,4.3-4.2,7.4-4.2c0.5,0,1.1,0.1,1.7,0.2
			c0.3,0.1,0.5,0.1,0.8,0.1c1.5,0,2.5-1,1.4-3c-1.1-2,2.5-6.1-2.8-6.1c-0.2,0-0.3-0.5-0.4-0.8c5.2-0.8-0.1-6.8,3.9-8.1
			c2.8-0.9-0.1-2.9,1-4.1c1.2-0.1,2.8,0.2,2.9-1.5c0.1-1-0.8-1.4-1.8-1.4c-0.1,0-0.1,0-0.2,0c-0.8-2.5,0.8-2,2.3-2.2
			c3.4-0.4,6.1-1.5,4.8-5.9c-0.4-1.4-0.3-2.6,0.7-2.6c0.3,0,0.8,0.1,1.4,0.5c1.2,0.7,2.1,1,2.8,1c1.9,0,2.4-2.2,2.4-4.4
			c0-1.5,0.2-2.3,0.8-2.3c0.4,0,0.9,0.3,1.6,0.8c0.7,0.5,1.2,0.7,1.6,0.7c1.1,0,1.2-1.5,1.6-2.6c-1.6-1.7-3.2-3.4-4.8-5.1
			c-3.8-1.5-2.1-6.5-1.7-6.9c2.6-2.4,1.4-5.3,2-7.9c1.1-5.3,5.5-7.2,9.7-9.1C64.1,17.5,65.3,17.3,66.5,17.3 M59.5,29.2
			c-0.3,0-0.6,0-1-0.1C58.3,29,58.1,29,58,29c-1.3,0-0.8,1.4-0.3,2.4c2.3,4.7,5.8,8.3,10.1,11.3c0.6,0.5,1.5,0.8,2.1,0.8
			c0.6,0,1.1-0.2,1.4-0.8c0.8-2.1,1.1-4.5,1.1-6.7c0-0.7-0.6-1.9-1.9-1.9c-0.3,0-0.7,0.1-1.2,0.3c-0.6,0.2-1.2,0.3-1.6,0.3
			c-1,0-1.4-0.6-0.5-2.7c0.9-2-1.2-2.8-2.2-4c-0.5-0.5-1.2-0.9-1.8-0.9c-0.4,0-0.9,0.2-1.2,0.6C61.2,28.6,60.6,29.2,59.5,29.2
			 M101.9,58c0.2,0,0.4,0,0.6-0.1c1.7-0.5,1.7-2.3,0.4-3.8c-1.4-0.6,0.1-3-2.1-3.2c-1.1,1.4-0.5,2.7-0.1,4.1
			C100.4,56.4,100.6,58,101.9,58 M131.8,59.6c0.9,0,1.2-1.7,2.3-1.7c0.2,0,0.4,0.1,0.6,0.2c-1.4,5,4.1,8.1,3.1,14.2
			c3.8-4.7,5-9,5-13.8c0-2.8-0.5-5.5-3.3-6.7c-0.8-0.3-1.5-0.5-2.3-0.5c-2.2,0-4.2,1.4-5.9,2.8c-1.2,1-2.3,2.9-0.6,4.8
			C131.1,59.4,131.5,59.6,131.8,59.6 M50.6,78.8c1.2,0,2.7-1.9,3.9-1.9c0.1,0,0.3,0,0.4,0.1v0c0,0,0,0,0,0c0.9-2.5,1.9-5,4-6.9
			l0.1,0c3.7-0.8,1-3.2,1-4.8c0.3,0,0.6-0.1,0.9-0.1c2.6,0,2.7,1.7,2.1,4c-2.5,2.8-2.2,5.2,0.8,7.6c1,0.7,1.4,2.1,2.1,3.2
			c0.4,1.3,0.9,2,1.4,2c0.5,0,1-0.5,1.5-1.7c0.6-1.3-0.4-3,0.9-4.3c0.1-0.1,0.1-0.1,0.2-0.2c0,0,0,0.1,0.1,0.1c0,0-0.3,0.1-0.3,0.1
			c0,0,0,0,0,0c0.8,0.8,0.9,2.5,3,2.5c0.1-2.1-0.4-3.9-1.8-5.6c0,0,0,0,0,0c-0.3-0.3-0.7-0.6-1-1c-0.7-1.6-1.4-3.2-0.9-5
			c0,0,0,0,0,0c0.6,0,1.2,0.1,1.8,0.1c0,0,0,0,0,0c1.5,2.8,2.2,5.9,4.9,8.7c0.5-4-1.9-6.7-1.9-9.9c0.1-6.1-0.3-8.5-2.9-8.5
			c-1.3,0-3.1,0.6-5.7,1.7c-3.5,1-7.3,1.5-8.3,6.2c-0.3,1.3-1.8,3.1-2.8,3.2c-4.9,0.6-4.6,4.2-5.1,7.6
			C49.3,78.1,49.9,78.8,50.6,78.8 M77.6,67.7c0.8,0,2.3-1,4.9-2.9c-1.6-0.7-3.1-1.3-4.5-1.9c-0.2-0.7-0.3-1.7-1.1-1.7
			c-0.1,0-0.2,0-0.3,0c-1.8,0.4-0.8,1.8-0.7,2.8C76.4,66.5,76.7,67.7,77.6,67.7 M35.6,116.3c0-6.5,0-12.3,0-18.1
			c0-1.1,0.7-2.4-0.7-3.1c-0.5-0.2-0.9-0.3-1.4-0.3c-0.8,0-1.7,0.3-2.4,0.8c-2.8,1.8-3.9,4.6-3.6,7.7
			C28.1,109,31.7,112.8,35.6,116.3 M42.9,173.1c0.2-0.1,0.3-0.1,0.5-0.1c1.2,0,2.6,1.5,3.7,1.5c0.5,0,0.9-0.3,1.1-1.1
			c0.9-2.7-3-2-4.4-3.4c0,0-0.1-0.1-0.2-0.1c-0.2,0-0.5,0.1-0.7,0.1c-3.3-1.7-4.9-4.6-5.6-8c-0.3-1.7-0.6-2.7-2.4-2.9
			c-0.6,2.3-3.4,4.2-1.1,6.9c0.3,2.4,2.3,3.2,4,4.3c0,0,0,0,0,0C39.4,171.2,41.2,172.2,42.9,173.1 M54,186c0.2,0,0.4,0,0.6-0.1
			c1.5-0.6,1.1-2,0.4-3.1c0-1.3-0.6-1.9-1.4-1.9c-0.4,0-0.8,0.1-1.1,0.3c-1.5,0.9,0,1.9,0.4,2.8C52.8,184.9,53.1,186,54,186
			 M110.4,194.5c2.3,0,3.4-1.6,4.7-2.6c3.6-2.8,3.7-5.9,0.3-9c-0.7-0.7-1.4-1-1.9-1c-0.7,0-1.3,0.6-1.5,2c-0.7,3.5-1.1,7-1.7,10.6
			C110.4,194.5,110.4,194.5,110.4,194.5 M97.9,186.5c0.2,0,0.5-0.1,0.7-0.2c0.9-0.5,2.5-0.2,2.2-2c-0.2-0.9-0.7-1.3-1.6-1.3
			c-0.1,0-0.1,0-0.2,0c-1.1,0.3-1.9,1.1-2,2.3C97,186.1,97.4,186.5,97.9,186.5 M65.6,197c0.6,0,0.9-0.5,1-1.3c0,0,0,0,0,0
			c0,0,0,0,0,0c0.1-0.5,0.2-1,0.4-1.4c1-2.4,0-4.1-1.9-5.4c-0.3-0.2-0.7-0.5-1.1-0.5c-0.2,0-0.4,0.1-0.6,0.3
			c-0.9,1.6,0.3,3.1,0.3,4.7c0,0.2,0,0.3,0.1,0.5c-0.2,1.2-0.2,2.4,1.1,3C65.2,197,65.4,197,65.6,197 M101.2,199.4
			c0.2,0,0.4-0.1,0.6-0.2c1.7-0.9,2.3-2.5,1.9-4.4c0.1-0.6,0.2-1.2,0.3-1.9c0.7-0.3,1-1.2,0.6-1.5c-0.4-0.2-0.7-0.3-1-0.3
			c-0.8,0-1.4,0.8-1.9,1.7c-1,1.5-3.3,2.6-1.8,5.1C100.1,198.7,100.5,199.4,101.2,199.4 M100.7,212.5c0.3,0,0.7-0.3,1.2-0.4
			c-0.2-0.6-0.2-1.2-0.5-1.4c-0.2-0.2-0.4-0.3-0.6-0.3c-0.4,0-0.7,0.4-0.7,0.9c0,0.4,0.2,1,0.5,1.2
			C100.6,212.5,100.6,212.5,100.7,212.5 M81.2,232.7c0.4,0,0.8-0.3,1.4-0.6c-0.4-0.4-0.6-0.9-1-1c-0.1,0-0.1,0-0.2,0
			c-0.4,0-0.8,0.1-1,0.4C80.1,232.2,80.5,232.7,81.2,232.7C81.2,232.7,81.2,232.7,81.2,232.7 M79.7,245.1c0.1,0,0.2,0,0.3-0.1
			c2.7-1.2,2.8-4.2,3.3-6.7c0.2-1-0.5-2.3-2.1-2.4c-2.9,1.5-2.1,4.5-2.5,6.9C78.6,243.7,79,245.1,79.7,245.1 M160.7,241.1
			c1.2,0,1.8-0.9,2.3-1.9c0-0.8-0.4-1.3-1.1-1.3c-0.1,0-0.2,0-0.4,0c-1.2,0-1.8,0.7-2,1.9c-0.1,0.8,0.2,1.3,1,1.3
			C160.5,241.1,160.6,241.1,160.7,241.1 M155.7,244.4c0.9,0,1.3-0.7,1.5-1.5c0.1-0.7-0.1-1.4-0.9-1.4c0,0-0.1,0-0.1,0
			c-0.9,0-1.2,0.8-1.5,1.5C154.6,243.8,154.9,244.4,155.7,244.4C155.7,244.4,155.7,244.4,155.7,244.4 M146.4,272.3
			c1.8,0,2.2-1.2,2.8-2.2c3.8-6,5.5-8.6,8.1-8.6c2.1,0,4.8,1.8,9.7,5c0.9,0.6,1.7,1.2,2.6,1.2c0.3,0,0.7-0.1,1-0.2
			c1.7-0.8,1.7-2.5,1.3-3.9c-1.5-4.8-2.7-9.9-5.3-14.3c-6.2,4.2-11.1,9.9-17.9,12.8c-1.2,0.5-1.7,1.4-1.8,2.7
			C146.8,267.1,146.6,269.5,146.4,272.3 M56.9,259.6c0.4,0,0.7-0.3,0.9-0.9c0.4-1.1,0.1-2.1-1.2-2.6c-1.1-0.6-0.8-3.1-2.1-3.1
			c-0.2,0-0.5,0.1-0.9,0.3c-2.3,1.2-0.1,3.1,0.6,4.5c0.2,0.5,1,0.8,1.5,1.2C56.2,259.4,56.6,259.6,56.9,259.6 M54.9,265.2
			c0.2,0,0.5,0,0.7-0.1c0.3-1.7-0.9-2.4-1.7-3.3c-0.3-1.4-1-2.8-2.2-2.8c-0.3,0-0.7,0.1-1,0.4c-1.4,0.9,0,2.6,1.2,3.5
			C52.9,263.7,53.4,265.2,54.9,265.2 M83.2,269c2.7,0,5.4-0.7,8.3-2.6c-4.3-1.2-8.6-1.8-13-2.5c-4.5-0.7-9.1-1.5-13.6-2.3
			c-0.1-0.9-0.6-1.4-1.1-1.4c-0.3,0-0.6,0.2-0.8,0.5c-1.2,1.6,0.4,2.1,1.6,2.4C70.9,265,76.8,269,83.2,269 M133.8,264.5
			c0.4,0,0.6-0.3,0.6-0.7c0-0.4-0.3-0.9-0.7-1.1c-0.1-0.1-0.2-0.1-0.3-0.1c-0.3,0-0.5,0.4-0.6,0.9c0.2,0.3,0.3,0.8,0.7,0.9
			C133.6,264.5,133.7,264.5,133.8,264.5 M118.3,270.7c0.8,0,1.3-0.6,1-1.6c-0.5-1.8-1.8-2.3-3.7-2.3c-0.2,0-0.4,0-0.6,0
			c-0.5,0.1-2.1-0.1-1.5,1.3c0.8,1.6,2.7,2.3,4.5,2.6C118.2,270.7,118.3,270.7,118.3,270.7 M154.7,272.3c0.1,0,0.2,0,0.3,0
			c1.2-0.2,2.2-0.5,2.5-1.9c0.1-0.6-0.1-1.3-0.9-1.3c0,0-0.1,0-0.1,0c-1.4,0-2.3,0.7-2.4,2.2C154,271.7,154,272.3,154.7,272.3
			 M127.8,273.6C127.8,273.6,127.8,273.6,127.8,273.6c0.8,0,1.5-0.5,1.4-1.2c-0.1-0.9-0.8-1.3-1.7-1.4c-0.7,0.1-1.4,0.3-1.3,1.1
			C126.3,273,126.9,273.6,127.8,273.6 M163.3,275.9c1,0,1.9-0.4,2.2-1.9c-0.2-1.6-1.5-2.3-3-2.6c-0.2,0-0.4-0.1-0.5-0.1
			c-1.5,0-2,1.6-2.3,2.8c-0.5,1.8,1.2,1.6,2.2,1.7C162.4,275.8,162.9,275.9,163.3,275.9 M191.2,275.8c-0.2,0-0.5,0-0.7,0
			c-0.7,0-1.4,0.2-1.2,1.4c0.2,1,1.1,1.5,2,1.5c0.3,0,0.5,0,0.8-0.1c1.3-0.4,2.4-1.1,3.6-1.6c2.6-0.4,3.1-2,3-4.5
			c-1.5,0.6-2.7,1-3.1,2.4c-1.3,0.3-2.6,0.5-3.9,0.8C191.6,275.7,191.4,275.8,191.2,275.8 M66.5,2.3C66.5,2.3,66.5,2.3,66.5,2.3
			c-3.3,0-6.5,0.7-9.7,2.1l-0.1,0c-5,2.2-15.5,6.9-18.3,19.6c-0.3,1.5-0.4,2.8-0.5,3.8c-2.4,4.3-3,9.7-2.2,13.9
			c-1.1,0.9-2,1.9-2.9,3c-1,1.3-1.8,2.8-2.3,4.3c-2.5,1.4-4.1,3.2-5.3,4.8c-1.1,1.7-2.6,4.5-2.8,8.4c-0.2,0.5-0.3,1-0.5,1.5
			c-1.1,1.6-1.9,3.4-2.3,5.3c-0.2,0.6-0.3,1.3-0.4,1.9c-0.3,0.5-0.6,1-0.9,1.5c-1.1,2.1-1.6,4.3-1.6,6.6c-1.5,1.2-2.7,2.3-3.6,3.3
			c-0.7,0.7-1.4,1.5-2,2.4L9.8,87l-2.4,3.6c-1,1.5-1.7,3.1-2.1,4.8c-2.5,10.5-0.5,20.8,6,30.5c-0.3,0.5-0.6,1-0.9,1.4
			c-0.8,1.2-1.5,2.4-2.2,3.4c-2.1,3.1-6.9,10.4-4.8,19.2c0.7,3,2.1,5.5,3.7,7.6c-2.5,10.9,1.5,21.1,11.4,28.5
			c2.9,2.2,5.8,3.6,8.4,4.9c1,0.5,1.9,0.9,2.6,1.4c2.5,1.8,6.3,9.4,6.4,12.7c0,0,0,0.1-0.1,0.1c-1.9,2-3.2,4.4-3.8,7.1
			c-1.1,4.4-0.2,9,2.4,12.9c0.8,1.1,1.7,2.2,2.7,3c-0.2,0.9-0.4,1.6-0.6,2.2c-3-1.7-6.1-2.6-9.4-2.6c-3.6,0-10.5,1.2-15.7,9
			c-6.5,9.8-4.4,19.8-3.2,25.7c1.6,7.8,8.4,13.4,16.3,13.4c0.7,0,1.5,0,2.2-0.1c2.4-0.3,4.9-1.2,7-2.7c0.3,0,0.6,0,0.9,0
			c2.2,3.8,6,7.5,12.6,10c1.5,0.5,3,0.9,4.5,1.2c1.1,1.4,2.5,2.6,4.1,3.6c4.2,2.5,8.8,3.8,13.7,3.8c1.1,0,2.1-0.1,3.1-0.2
			c2,2.2,4.6,3.8,7.6,4.6c3.2,0.8,6.5,1.2,10.3,1.2c1.7,0,3.3-0.1,4.6-0.1c0.6,0,1.2-0.1,1.9-0.1c4.3-0.1,12.4-0.4,18-6.9
			c0,0,0,0,0,0c2.9,0.6,6,0.9,9.2,0.9c0.3,0,0.7,0,1,0c1,0,2-0.1,2.7-0.2c6.4,2.5,12.6,2.9,17.9,2.9c0.7,0,1.3,0,2,0
			c4.6,4,9.2,4.9,12.5,4.9c4.9,0,9.5-2,13-5.7c0.1-0.1,0.3-0.3,0.5-0.4c0.4-0.4,1-0.8,1.6-1.3c0.3,0.2,0.6,0.4,0.8,0.6
			c2.5,2.4,5.8,3.8,9.2,4c0.7,0,1.5,0.1,2.2,0.1c1.7,0,3.2-0.1,4.4-0.2c0.6,0,1.2-0.1,1.6-0.1c0.5,0.2,1,0.4,1.5,0.6
			c2.1,0.7,4.3,1,6.5,1c3.7,0,6.6-0.9,8.6-1.5c0.4-0.1,0.9-0.3,1.1-0.3c5.9-1.1,10.6-5.6,11.9-11.4c1-4.6-0.1-9.3-3-12.8
			c0.6-6.2-1.5-12.1-6.1-16.7c-5.2-5.3-10.7-6.4-14.4-6.4c0.6-0.1,1.3-0.2,1.9-0.3c5.1-1,9.3-4.6,11.2-9.5c1.5-4,1.2-8.4-0.7-12.1
			c0.6-2.8,0.8-6.1,0.1-9.8c-1-5.9-0.8-10.6,0.7-14.7c2.9-7.7,3-15.9,0.3-23.8c-2.5-7.5-9-12.3-16.4-12.3c0,0,0,0,0,0
			c-2.3,0-4.5,0.5-6.7,1.3c-0.8-0.1-1.6-0.2-2.4-0.2c-0.7,0-1.4,0-2.1,0.1c-4,0.6-7.6,2.7-10,6c-4,5.4-5.9,14.3,1.1,22.2
			c0.1,3.8,0.1,7.5-0.2,11.2c-1-0.5-2-0.9-3-1.2c-1.9-0.6-3.9-0.9-5.8-0.9c-6.1,0-10.5,2.7-13.3,5c-0.8-1.4-1.7-2.8-2.9-4
			c-3.2-3.5-7.6-5.7-12.4-6.3c1.1-4,1-7.7,0.7-10.5c0-0.3-0.1-0.8-0.1-1.2c1.9-1.8,3.5-4,4.9-6.6c6.6-2.4,11.9-7.3,14.7-13.8
			c0.1-0.3,0.2-0.5,0.3-0.6c0.6-0.4,1.2-0.7,1.8-1.1c3.1,1.8,6.1,2.2,8,2.2c2.8,0,5.7-0.8,8.2-2.2c1.9-1.1,11.2-7.2,7.9-20.2l0-0.1
			c-0.4-1.5-0.8-2.8-1.2-4c0-0.1-0.1-0.3-0.1-0.4c0.8-0.2,1.7-0.4,2.5-0.7c0.3,0,0.6,0,0.9,0c0.1,0,0.1,0,0.2,0
			c4.1,0,8-1.8,10.8-4.8c2.6-2.8,4-6.5,4-10.3c3.1-4.3,3.8-9.8,1.5-14.9c-0.2-0.4-0.5-1.3-0.8-2.1c-0.6-1.6-1.3-3.7-2.4-5.9
			c1.1-3.4,1-7.1-0.2-10.7c-2.2-6.3-7.1-11.3-13.2-14.2c0.1-0.6,0.1-1.1,0.2-1.7c0.1-1.2,0-2.5-0.3-4c1.1-2.5,1.4-4.8,1.4-6.8
			c0-2.8-0.7-5.5-2-7.8c4.6-4.2,6.4-10.5,4.9-16.7c-0.7-2.7-1.9-4.8-2.6-6.1c-0.1-0.1-0.2-0.3-0.2-0.4c-0.6-1.2-1.2-2.7-2.2-4.3
			c-5.3-9.1-12.3-11-17.3-11c-4.4,0-8.6,1.5-12.9,4.6c-2.4,1.7-4.3,3.6-6,5.6c-3.5-1.4-7.1-2.2-10.7-2.2c-1.6,0-3.2,0.1-4.8,0.4
			c-1.1-2.7-3.7-8-9.9-11.4c-3.9-2.1-10.1-4.7-17.5-4.7c-6.3,0-12.2,1.9-17,5.5c-0.6-0.4-1.1-0.8-1.7-1.2c-0.8-1-1.8-1.8-2.9-2.5
			c-0.6-0.7-1.4-1.7-2.4-2.7C77.4,3.6,70.9,2.3,66.5,2.3L66.5,2.3L66.5,2.3z M194.5,248.8c0.1,0,0.2,0,0.3,0c0.1,0,0.2,0,0.2,0
			C194.9,248.8,194.7,248.8,194.5,248.8C194.6,248.8,194.5,248.8,194.5,248.8L194.5,248.8z"/>
	</g>
</g>
</svg>
